<?xml version="1.0" encoding="UTF-8"?>
<svg id="Layer_1" data-name="Layer 1" xmlns="http://www.w3.org/2000/svg" xmlns:xlink="http://www.w3.org/1999/xlink" viewBox="0 0 57.22 66.36">
  <defs>
    <style>
      .cls-1 {
        fill: #fff;
      }

      .cls-2 {
        fill: #213038;
      }

      .cls-3 {
        opacity: .15;
      }

      .cls-4 {
        opacity: .3;
      }

      .cls-5 {
        fill: #577b93;
      }

      .cls-6 {
        fill: url(#linear-gradient);
      }
    </style>
    <linearGradient id="linear-gradient" x1="28.61" y1="57.26" x2="28.61" y2="3.34" gradientUnits="userSpaceOnUse">
      <stop offset="0" stop-color="#2e424f"/>
      <stop offset="1" stop-color="#3e586d"/>
    </linearGradient>
  </defs>
  <g id="menu_button">
    <ellipse id="shadow" class="cls-4" cx="28.61" cy="34.68" rx="28.61" ry="31.68"/>
    <g id="Button">
      <ellipse class="cls-1" cx="28.61" cy="31.68" rx="28.61" ry="31.68"/>
      <ellipse class="cls-2" cx="28.61" cy="31.68" rx="27.06" ry="29.97"/>
      <ellipse class="cls-6" cx="28.61" cy="30.3" rx="24.35" ry="26.96"/>
      <path class="cls-3" d="m28.61,53.09c-12.81,0-23.31-10.96-24.27-24.87-.05.69-.08,1.38-.08,2.09,0,14.89,10.9,26.96,24.35,26.96s24.35-12.07,24.35-26.96c0-.7-.03-1.4-.08-2.09-.96,13.91-11.46,24.87-24.27,24.87Z"/>
      <path class="cls-5" d="m28.61,5.97c13.05,0,23.7,11.37,24.32,25.65.02-.44.03-.87.03-1.31,0-14.89-10.9-26.96-24.35-26.96S4.26,15.41,4.26,30.3c0,.44.01.88.03,1.31.62-14.28,11.27-25.65,24.32-25.65Z"/>
      <path class="cls-5" d="m33.98,9.23c0,.96-.7,1.74-1.57,1.74s-1.57-.78-1.57-1.74.7-1.74,1.57-1.74,1.57.78,1.57,1.74Z"/>
      <path class="cls-5" d="m40.89,12.42c-.23.75-2.94.4-4.62-.55-.65-.37-.96-.72-1.04-1.15-.1-.53.17-1.15.51-1.41,1.34-1.02,5.46,2.1,5.15,3.12Z"/>
      <rect class="cls-1" x="18.87" y="19.52" width="19.47" height="5.58" rx="2.79" ry="2.79"/>
      <rect class="cls-1" x="18.87" y="27.51" width="19.47" height="5.58" rx="2.79" ry="2.79"/>
      <rect class="cls-1" x="18.87" y="35.5" width="19.47" height="5.58" rx="2.79" ry="2.79"/>
      <rect class="cls-3" x="18.87" y="35.5" width="19.47" height="5.58" rx="2.79" ry="2.79"/>
      <path class="cls-2" d="m39.51,23.46v-2.31c0-1.61-1.19-2.93-2.64-2.93h-16.52c-1.46,0-2.64,1.31-2.64,2.93v2.31c0,1.38.87,2.53,2.03,2.84-1.16.31-2.03,1.46-2.03,2.84v2.31c0,1.38.87,2.53,2.03,2.84-1.16.31-2.03,1.46-2.03,2.84v2.31c0,1.61,1.19,2.93,2.64,2.93h16.52c1.46,0,2.64-1.31,2.64-2.93v-2.31c0-1.38-.87-2.53-2.03-2.84,1.16-.31,2.03-1.46,2.03-2.84v-2.31c0-1.38-.87-2.53-2.03-2.84,1.16-.31,2.03-1.46,2.03-2.84Zm-1.17,13.67v2.31c0,.9-.66,1.63-1.48,1.63h-16.52c-.81,0-1.48-.73-1.48-1.63v-2.31c0-.9.66-1.63,1.48-1.63h16.52c.81,0,1.48.73,1.48,1.63Zm0-7.99v2.31c0,.9-.66,1.63-1.48,1.63h-16.52c-.81,0-1.48-.73-1.48-1.63v-2.31c0-.9.66-1.63,1.48-1.63h16.52c.81,0,1.48.73,1.48,1.63Zm0-5.68c0,.9-.66,1.63-1.48,1.63h-16.52c-.81,0-1.48-.73-1.48-1.63v-2.31c0-.9.66-1.63,1.48-1.63h16.52c.81,0,1.48.73,1.48,1.63v2.31Z"/>
      <path class="cls-3" d="m18.87,30.3v1.16c0,.9.66,1.63,1.48,1.63h16.52c.81,0,1.48-.73,1.48-1.63v-1.16h-19.47Z"/>
    </g>
  </g>
</svg>