<svg id="eGRvx9ALFtX1" xmlns="http://www.w3.org/2000/svg" xmlns:xlink="http://www.w3.org/1999/xlink" viewBox="0 0 57.22 66.36" shape-rendering="geometricPrecision" text-rendering="geometricPrecision"><defs><linearGradient id="eGRvx9ALFtX7-fill" x1="0" y1="26.96" x2="0" y2="-26.96" spreadMethod="pad" gradientUnits="userSpaceOnUse" gradientTransform="translate(0 0)"><stop id="eGRvx9ALFtX7-fill-0" offset="0%" stop-color="#2e424f"/><stop id="eGRvx9ALFtX7-fill-1" offset="100%" stop-color="#3e586d"/></linearGradient></defs><g><ellipse rx="28.61" ry="31.68" transform="translate(28.61 34.68)" opacity="0.3"/><g><ellipse rx="28.61" ry="31.68" transform="translate(28.61 31.68)" fill="#fff"/><ellipse rx="27.06" ry="29.97" transform="translate(28.61 31.68)" fill="#213038"/><ellipse rx="24.35" ry="26.96" transform="translate(28.61 30.3)" fill="url(#eGRvx9ALFtX7-fill)"/><path d="M28.61,53.09C15.8,53.09,5.3,42.13,4.34,28.22c-.05.69-.08,1.38-.08,2.09c0,14.89,10.9,26.96,24.35,26.96s24.35-12.07,24.35-26.96c0-.7-.03-1.4-.08-2.09-.96,13.91-11.46,24.87-24.27,24.87Z" opacity="0.15"/><path d="M28.61,5.97c13.05,0,23.7,11.37,24.32,25.65.02-.44.03-.87.03-1.31c0-14.89-10.9-26.96-24.35-26.96s-24.35,12.06-24.35,26.95c0,.44.01.88.03,1.31C4.91,17.33,15.56,5.96,28.61,5.96Z" fill="#577b93"/><path d="M33.98,9.23c0,.96-.7,1.74-1.57,1.74s-1.57-.78-1.57-1.74.7-1.74,1.57-1.74s1.57.78,1.57,1.74Z" fill="#577b93"/><path d="M40.89,12.42c-.23.75-2.94.4-4.62-.55-.65-.37-.96-.72-1.04-1.15-.1-.53.17-1.15.51-1.41c1.34-1.02,5.46,2.1,5.15,3.12Z" fill="#577b93"/><rect id="eGRvx9ALFtX12" width="19.47" height="5.58" rx="2.79" ry="2.79" transform="matrix(.78039 0.625293-.625293 0.78039 22.359136 23.430482)" fill="#fff"/><rect id="eGRvx9ALFtX13" width="19.47" height="5.58" rx="2.79" ry="2.79" transform="translate(18.87 27.51)" opacity="0" fill="#fff"/><rect id="eGRvx9ALFtX14" width="19.47" height="5.58" rx="2.79" ry="2.79" transform="matrix(.746342-.665563 0.665563 0.746342 19.308213 36.388996)" fill="#fff"/></g></g>
<script><![CDATA[]]></script>
</svg>
