<?xml version="1.0" encoding="UTF-8" standalone="no"?>
<!-- Created with Inkscape (http://www.inkscape.org/) -->

<svg
   version="1.1"
   id="svg2"
   width="2496.2268"
   height="3841.0801"
   viewBox="0 0 2496.2268 3841.0801"
   sodipodi:docname="451.eps"
   xmlns:inkscape="http://www.inkscape.org/namespaces/inkscape"
   xmlns:sodipodi="http://sodipodi.sourceforge.net/DTD/sodipodi-0.dtd"
   xmlns="http://www.w3.org/2000/svg"
   xmlns:svg="http://www.w3.org/2000/svg">
  <defs
     id="defs6" />
  <sodipodi:namedview
     id="namedview4"
     pagecolor="#ffffff"
     bordercolor="#000000"
     borderopacity="0.25"
     inkscape:showpageshadow="2"
     inkscape:pageopacity="0.0"
     inkscape:pagecheckerboard="0"
     inkscape:deskcolor="#d1d1d1" />
  <g
     id="g8"
     inkscape:groupmode="layer"
     inkscape:label="ink_ext_XXXXXX"
     transform="matrix(1.3333333,0,0,-1.3333333,0,3841.08)">
    <g
       id="g10"
       transform="scale(0.1)">
      <path
         d="M 15491.5,0 C 10190.9,0.402344 -102.664,3063.1 1364.67,5040.5 c 166.12,223.9 403.3,407.3 700.8,554.3 1570.17,-935.3 3913.84,-1859.2 6601.48,-2599.6 2672.65,-736 5156.05,-1144.7 6962.55,-1144.7 976.5,-0.1 1755.1,119.3 2259.2,371 608.8,-544.2 812.7,-1073 428.8,-1528.797 C 17908.1,206.602 16868.8,-0.0976563 15491.5,0"
         style="fill:#e8e7e6;fill-opacity:1;fill-rule:nonzero;stroke:none"
         id="path12" />
      <path
         d="m 2500.76,5837.1 c -306.39,-10.1 -566,-143.4 -725.54,-345.1 -126.82,-160.4 -389.9,-548.5 -363.71,-767.9 58.93,-494.7 862.21,-916.3 1412.66,-898 379.51,12.7 577,433.7 711.76,719.9 60.71,129 86.33,274.9 68.17,428.4 -58.9,494.7 -552.85,881 -1103.34,862.7"
         style="fill:#597b2a;fill-opacity:1;fill-rule:nonzero;stroke:none"
         id="path14" />
      <path
         d="m 2300.64,5455.5 c -550.33,-18.3 -949.03,-434.2 -890.12,-928.8 58.97,-494.7 552.88,-881.2 1103.4,-862.9 550.28,18.3 948.85,434.1 890.07,928.9 -58.85,494.6 -553.11,880.8 -1103.35,862.8"
         style="fill:#99d320;fill-opacity:1;fill-rule:nonzero;stroke:none"
         id="path16" />
      <path
         d="m 2361.4,4944.5 c -269.35,-8.8 -464.28,-212.3 -435.61,-454.4 28.87,-242.2 270.65,-431.1 540.03,-422.3 269.28,9.1 464.17,212.5 435.38,454.6 -28.79,242.1 -270.37,431.1 -539.8,422.1"
         style="fill:#597b2a;fill-opacity:1;fill-rule:nonzero;stroke:none"
         id="path18" />
      <path
         d="m 2422.48,4946.6 c -212.37,-6.9 -366.11,-167.5 -343.32,-358.4 22.61,-191.1 213.29,-339.9 425.69,-333.1 212.44,7.1 366.19,167.6 343.49,358.6 -22.71,190.9 -213.49,340.1 -425.86,332.9"
         style="fill:#87b228;fill-opacity:1;fill-rule:nonzero;stroke:none"
         id="path20" />
      <path
         d="m 2384.49,4751.7 c -117.87,-4 -203.44,-93.2 -190.69,-199.3 12.65,-105.8 118.35,-188.4 236.33,-184.8 117.76,4.1 203.23,93.2 190.52,199.1 -12.58,106 -118.37,188.7 -236.16,185"
         style="fill:#748487;fill-opacity:1;fill-rule:nonzero;stroke:none"
         id="path22" />
      <path
         d="m 2426.11,4621.1 c -70.15,-2.7 -120.88,-55.6 -113.36,-118.4 7.45,-63.1 70.33,-112.4 140.63,-110 69.99,2.3 120.85,55.3 113.27,118.4 -7.43,62.9 -70.41,112 -140.54,110"
         style="fill:#bfc2c1;fill-opacity:1;fill-rule:nonzero;stroke:none"
         id="path24" />
      <path
         d="m 12582.8,2604.7 c -283.6,-93.7 -486.5,-286.1 -575.5,-512.6 -70.8,-180.3 -201.2,-604 -111.5,-795.2 202.5,-431.697 1078.9,-591.798 1588.3,-423.498 351.1,116.301 410.1,551.598 451.1,848.198 18.3,133.3 -1.2,272.5 -64.1,406.5 -202.3,431.5 -779.2,645 -1288.3,476.6"
         style="fill:#597b2a;fill-opacity:1;fill-rule:nonzero;stroke:none"
         id="path26" />
      <path
         d="m 12509.3,2204 c -509.3,-168.4 -757.9,-654.8 -555.6,-1086.3 202.5,-431.798 779.6,-644.899 1288.7,-476.696 509.1,168.199 757.9,654.496 555.3,1086.296 -202.4,431.4 -779.4,645 -1288.4,476.7"
         style="fill:#99d320;fill-opacity:1;fill-rule:nonzero;stroke:none"
         id="path28" />
      <path
         d="m 12718.3,1758.2 c -249.1,-82.3 -370.9,-320.2 -271.8,-531.4 99.1,-211.2 381.6,-315.898 630.5,-233.398 249.3,82.398 371,320.498 272,531.598 -99.3,211.1 -381.3,315.7 -630.7,233.2"
         style="fill:#597b2a;fill-opacity:1;fill-rule:nonzero;stroke:none"
         id="path30" />
      <path
         d="m 12774.9,1777.1 c -196.5,-64.9 -292.6,-252.8 -214.3,-419.3 78,-166.3 300.6,-249 497.3,-183.9 196.5,64.8 292.4,252.6 214.3,419.1 -78.1,166.7 -300.8,248.9 -497.3,184.1"
         style="fill:#87b228;fill-opacity:1;fill-rule:nonzero;stroke:none"
         id="path32" />
      <path
         d="m 12797.3,1589.9 c -108.9,-36.2 -162.3,-140.4 -118.9,-232.7 43.5,-92.2 166.9,-138.3 276,-102 108.9,35.9 162.3,140.1 119,232.6 -43.5,92.1 -166.9,138 -276.1,102.1"
         style="fill:#748487;fill-opacity:1;fill-rule:nonzero;stroke:none"
         id="path34" />
      <path
         d="m 12875.2,1483.1 c -64.8,-21.4 -96.5,-83.2 -70.7,-138.3 25.7,-55 99.2,-82.2 164.2,-60.8 64.9,21.5 96.5,83.4 70.7,138.5 -25.7,54.8 -99.4,82.2 -164.2,60.6"
         style="fill:#bfc2c1;fill-opacity:1;fill-rule:nonzero;stroke:none"
         id="path36" />
      <path
         d="M 9623.77,6948.4 C 4865.19,8335.3 1339.59,9671.1 349.387,8725.8 181.848,8565.8 39.293,8120.1 19.0313,8023.2 -305.551,6471.6 3559.76,4402.1 8666.95,2995.2 13774,1588.7 18189.1,1377.6 18513.2,2928.9 18837.8,4480.2 14699.7,5468.8 9623.77,6948.4"
         style="fill:#829090;fill-opacity:1;fill-rule:nonzero;stroke:none"
         id="path38" />
      <path
         d="M 9814.21,7343.5 C 4738.34,8823.1 533.902,9969.7 209.41,8418.3 -114.898,6867.1 3750.26,4797.3 8857.42,3390.7 c 5107.08,-1406.8 9522.08,-1618 9846.48,-66.4 324.5,1551.3 -3813.7,2539.8 -8889.69,4019.2"
         style="fill:#9bdff2;fill-opacity:1;fill-rule:nonzero;stroke:none"
         id="path40" />
      <path
         d="M 18492.6,3364.8 C 18174.2,2371.1 15094.6,2090 11064,3112 7033.66,4134.3 6086.73,5230.5 6542.81,6551.3 6999.05,7872 9789.4,7238.6 12727.5,6413.1 c 2938,-825.8 6160.1,-1816.5 5765.1,-3048.3"
         style="fill:#c4ecf4;fill-opacity:1;fill-rule:nonzero;stroke:none"
         id="path42" />
      <path
         d="M 15191.6,5749.1 C 16405.7,5454.7 17875.6,4682.7 17786,3384.6 17695,2060.2 16192.3,2315 16296.5,3159.7 16455.1,4442.4 15646,5464.8 15191.6,5749.1"
         style="fill:#b9dd16;fill-opacity:1;fill-rule:nonzero;stroke:none"
         id="path44" />
      <path
         d="m 15572.9,5610.7 c 657.6,-138.4 1988.7,-738.7 1991.5,-1757.2 2.5,-925.6 -911.9,-737.5 -975.8,79.7 -61.3,783.2 -610.2,1323 -1015.7,1677.5"
         style="fill:#454e51;fill-opacity:1;fill-rule:nonzero;stroke:none"
         id="path46" />
      <path
         d="m 10350,4834.5 c -2285.3,-348.7 -4357.07,-775 -5442.15,536.3 -1388.03,1677.4 -383.02,3395.5 -383.02,3395.5 0,0 -3487.17,944.2 -4175.443,-40.5 C -455.766,7573.4 1744.72,5986.4 4357.16,4938.3 c 556.79,-231.8 1669.69,-721.8 2727.49,-1016.9 287.88,-24.1 948.01,11.5 1215.57,42.3 1441.8,166.1 2780.48,-138.7 2824.28,-824.2 7.7,-118 54.9,-229.9 131.9,-333.2 0,0 1452.2,-361.5 2329.9,-400 82.3,74.9 144.6,168.9 180.1,283.7 307.6,989.6 -1130.9,2493.4 -3416.4,2144.5"
         style="fill:#ee1c77;fill-opacity:1;fill-rule:nonzero;stroke:none"
         id="path48" />
      <path
         d="m 2149.27,6054.7 c 952.48,-498.5 2251.42,-252.3 1925.02,550.9 -326.57,803.2 -1451.52,1917.4 -814.66,2439.5 0,0 -765.84,133.3 -1109.25,115.2 -346.95,-679.4 558.2,-1317.7 1153.53,-2100 595.08,-782.6 107.01,-1137.9 -567.2,-939.6 -674.09,198.2 -1398.02,473 -1886.23,875.6 0,0 532.29,-538.9 1298.79,-941.6"
         style="fill:#b9dd16;fill-opacity:1;fill-rule:nonzero;stroke:none"
         id="path50" />
      <path
         d="m 1184.19,9153.3 c -236.694,-422.9 1372.19,-1278.2 1484.4,-2008.9 106.97,-696.1 -533.36,-539 -1058.17,-51.9 -443.59,411.8 -930.315,460 -1160.287,372.3 C 2.13672,8131.2 87.7695,8973.4 1184.19,9153.3"
         style="fill:#454e51;fill-opacity:1;fill-rule:nonzero;stroke:none"
         id="path52" />
      <path
         d="m 1184.19,9153.3 c -236.694,-422.9 1372.19,-1278.2 1484.4,-2008.9 106.97,-696.1 -533.36,-539 -1058.17,-51.9 -443.59,411.8 -930.315,460 -1160.287,372.3"
         style="fill:#454e51;fill-opacity:1;fill-rule:nonzero;stroke:none"
         id="path54" />
      <path
         d="m 2077.37,5011 c -201.19,-129 -451.54,-543.7 -54.76,-890.7 353.62,-309 828.97,-110.4 930.86,-36.4 105.77,77.3 303.23,-24.9 -49.19,-241.9 -359.32,-221.2 -1041.92,-117 -1316.48,449.6 -274.65,566.9 232.63,880.8 449.97,923.6 217.29,42.7 149.62,-133.8 39.6,-204.2"
         style="fill:#bde03a;fill-opacity:1;fill-rule:nonzero;stroke:none"
         id="path56" />
      <path
         d="m 12558.1,1852.7 c -205.8,-124 -471.5,-522.4 -89.5,-853.395 340.4,-295.301 822.3,-103.903 926.5,-32.5 108.5,74.195 301.6,-23.203 -58.4,-232.102 -366.8,-212.898 -1043.3,-115 -1294.8,427.297 -251.6,542.4 266.3,844.7 484.6,886.3 218.4,41.5 144,-127.8 31.6,-195.6"
         style="fill:#bde03a;fill-opacity:1;fill-rule:nonzero;stroke:none"
         id="path58" />
      <path
         d="m 7274.52,4479.5 c -210.21,0 -413.32,9.8 -608.09,31.8 -1444.93,528.9 -2342.63,1189.8 -1669.47,1764.4 434.75,371.1 1056.46,568.4 1770.42,635.2 -99.92,-98.9 -175.64,-218 -224.57,-359.6 -42.34,-122.6 -72.59,-243.3 -89.4,-362.2 L 5048.68,5610.7 c 38.21,-283 560.41,-588.3 1388.45,-588.3 114,0 233.75,5.8 358.87,18.2 157.88,-190.5 371.74,-376.6 649.01,-559.1 -57.33,-1.3 -114.18,-2 -170.49,-2"
         style="fill:#71c0cd;fill-opacity:1;fill-rule:nonzero;stroke:none"
         id="path60" />
      <path
         d="m 10859.5,3587.1 c -761.1,71 -1589.17,209.7 -2383.09,394.6 198.31,17.7 393.91,26.5 583.22,26.5 111.76,0 221.34,-3.1 328.2,-9.1 263.99,-114.1 668.37,-210.9 1098.97,-210.9 1.2,0 2.4,0 3.5,0 145,-56.6 269.6,-123.7 369.2,-201.1 m 2635.5,217.8 c -277.3,370.9 -729.7,704.4 -1318.6,900 181.2,583.5 -441.8,1126.7 -920,1310.1 L 9661.85,4727.9 C 8875.49,4606.2 8125.3,4497.7 7445.01,4481.5 7167.74,4664 6953.88,4850.1 6796,5040.6 c 424.05,42.1 909.36,160.5 1437.79,388.4 1534.4,661.8 659.35,1271.9 -223.39,1271.9 -162.56,0 -325.37,-20.7 -473.45,-65.6 L 6453.41,6189.1 c 16.81,118.9 47.06,239.6 89.4,362.2 48.93,141.6 124.65,260.7 224.57,359.6 190.85,17.8 388.26,26.3 590.62,26.3 3113.7,0 7376.8,-2011.7 6294,-3019.5 -44.3,-41.2 -96.8,-78.7 -157,-112.8"
         style="fill:#95c9cb;fill-opacity:1;fill-rule:nonzero;stroke:none"
         id="path62" />
      <path
         d="m 11908.6,3534.2 c -326,0 -679.7,18.5 -1049.1,52.9 -99.6,77.4 -224.2,144.5 -369.2,201.1 448.5,0.5 925,106 1301.7,406.2 211.4,168.3 331.8,341.1 384.4,510.5 588.9,-195.6 1041.3,-529.1 1318.6,-900 -332.3,-188.2 -898.1,-270.7 -1586.4,-270.7 m -3432.19,447.5 c -644.36,150.1 -1266.01,330.5 -1809.98,529.6 194.77,-22 397.88,-31.8 608.09,-31.8 56.31,0 113.16,0.7 170.49,2 680.29,16.2 1430.48,124.7 2216.84,246.4 l -582.41,-470.2 c -15.41,-72.3 104.86,-170.6 308.39,-258.6 -106.86,6 -216.44,9.1 -328.2,9.1 -189.31,0 -384.91,-8.8 -583.22,-26.5"
         style="fill:#cd185e;fill-opacity:1;fill-rule:nonzero;stroke:none"
         id="path64" />
      <path
         d="m 6437.13,5022.4 c -828.04,0 -1350.24,305.3 -1388.45,588.3 l 1404.73,578.4 c -56.87,-402 39.95,-783.3 342.59,-1148.5 -125.12,-12.4 -244.87,-18.2 -358.87,-18.2"
         style="fill:#5696a3;fill-opacity:1;fill-rule:nonzero;stroke:none"
         id="path66" />
      <path
         d="m 6796,5040.6 c -302.64,365.2 -399.46,746.5 -342.59,1148.5 l 1083.54,446.2 c 148.08,44.9 310.89,65.6 473.45,65.6 882.74,0 1757.79,-610.1 223.39,-1271.9 C 7705.36,5201.1 7220.05,5082.7 6796,5040.6"
         style="fill:#739da1;fill-opacity:1;fill-rule:nonzero;stroke:none"
         id="path68" />
      <path
         d="m 10486.8,3788.2 c -430.6,0 -834.98,96.8 -1098.97,210.9 424.98,-24 806.17,-95.4 1102.47,-210.9 -1.1,0 -2.3,0 -3.5,0 m 1689.6,916.7 c -343.7,114 -733.9,181.1 -1163,181.1 -212,0 -433.3,-16.4 -663.4,-51.5 -231.8,-35.4 -461.53,-71.6 -688.15,-106.6 L 11256.4,6015 c 478.2,-183.4 1101.2,-726.6 920,-1310.1"
         style="fill:#739da1;fill-opacity:1;fill-rule:nonzero;stroke:none"
         id="path70" />
      <path
         d="m 10490.3,3788.2 c -296.3,115.5 -677.49,186.9 -1102.47,210.9 -203.53,88 -323.8,186.3 -308.39,258.6 l 582.41,470.2 c 226.62,35 456.35,71.2 688.15,106.6 230.1,35.1 451.4,51.5 663.4,51.5 429.1,0 819.3,-67.1 1163,-181.1 -52.6,-169.4 -173,-342.2 -384.4,-510.5 -376.7,-300.2 -853.2,-405.7 -1301.7,-406.2"
         style="fill:#a21749;fill-opacity:1;fill-rule:nonzero;stroke:none"
         id="path72" />
      <path
         d="m 7748.52,28593.6 c 122.06,319.1 686.4,275.4 680.62,-85.8 -5.79,-361.2 -752.32,-136.1 -680.62,85.8"
         style="fill:#3847a4;fill-opacity:1;fill-rule:nonzero;stroke:none"
         id="path74" />
      <path
         d="m 8040.4,28805 c -145.06,-10.2 -250.82,-181.4 8.79,-198.3 259.62,-16.8 272.72,218 -8.79,198.3"
         style="fill:#485bb3;fill-opacity:1;fill-rule:nonzero;stroke:none"
         id="path76" />
      <path
         d="m 7413.44,11656.9 c -284.61,-121.2 -1458.81,590.9 -1473.38,1188.8 -14.55,597.9 1246.79,424.2 1246.79,424.2 0,0 619.81,-1445.5 226.59,-1613"
         style="fill:#3b4172;fill-opacity:1;fill-rule:nonzero;stroke:none"
         id="path78" />
      <path
         d="m 7134.47,15006.5 c 0,0 -2336.05,-1458.8 -2735.48,-2410.6 -399.43,-951.7 635.98,-1744.3 1816.85,-1027.1 1180.87,717.2 2724.91,1132.3 3274.17,2076 549.19,943.7 -141.26,1603.5 -141.26,1603.5"
         style="fill:#f79074;fill-opacity:1;fill-rule:nonzero;stroke:none"
         id="path80" />
      <path
         d="m 5483.67,13741.1 c 0,0 -575.62,-348.1 -592,-471.2 -16.35,-123.1 1287.71,-940.2 1298.07,-943.6 301.16,66.6 489.63,313.7 489.63,313.7 -174.61,365.6 -835.03,995.3 -1195.7,1101.1"
         style="fill:#fbc593;fill-opacity:1;fill-rule:nonzero;stroke:none"
         id="path82" />
      <path
         d="m 7334.49,15248.3 c -654.04,-187.9 -1897.5,-1233.3 -1912.18,-1356.1 220.14,-115.1 1421.77,-920.4 1991.13,-2235.3 560.78,170.1 2325.98,1182.8 2778.16,1934.6 452.2,751.7 27.8,1805.3 27.8,1805.3"
         style="fill:#7477aa;fill-opacity:1;fill-rule:nonzero;stroke:none"
         id="path84" />
      <path
         d="m 8717.7,12776.7 -1375.4,-964.8 48.46,-103.7 1397.23,878.4"
         style="fill:#d0d2ee;fill-opacity:1;fill-rule:nonzero;stroke:none"
         id="path86" />
      <path
         d="m 7171.15,15248.3 c -593.77,-362.4 -1684.18,-1228.2 -1687.43,-1308.7 -3.25,-80.5 322.25,-160.1 844.43,-669.7 522.19,-509.6 685.97,-782.8 799.1,-833 113.13,-50.2 1039.28,927.3 1251.39,1146.9 190.03,304.3 252.07,778.3 252.07,778.3 -522.15,-48.2 -1352.58,503.3 -1390.33,786.4"
         style="fill:#9596d3;fill-opacity:1;fill-rule:nonzero;stroke:none"
         id="path88" />
      <path
         d="m 5901.81,14358.5 c 0,0 444.38,-200.3 875.72,-689.7 431.36,-489.5 729.55,-1029 1093.19,-1819.3 l 117.8,37 c 0,0 -597.76,1299.1 -1127.2,1873.5 -445.25,483 -851.8,685.6 -851.8,685.6 l -107.71,-87.1"
         style="fill:#d0d2ee;fill-opacity:1;fill-rule:nonzero;stroke:none"
         id="path90" />
      <path
         d="m 6630.98,14883 c 0,0 444.36,-200.3 875.73,-689.7 431.36,-489.4 729.54,-1028.9 1093.16,-1819.2 l 117.83,37 c 0,0 -597.75,1299.1 -1127.21,1873.4 -445.25,483 -851.8,685.7 -851.8,685.7 l -107.71,-87.2"
         style="fill:#d0d2ee;fill-opacity:1;fill-rule:nonzero;stroke:none"
         id="path92" />
      <path
         d="m 7306.91,15778.8 c 0,0 444.37,-200.3 875.74,-689.7 431.35,-489.4 729.53,-1028.9 1093.17,-1819.2 l 117.83,37 c 0,0 -597.78,1299.1 -1127.22,1873.4 -445.25,483 -851.8,685.7 -851.8,685.7 l -107.72,-87.2"
         style="fill:#d0d2ee;fill-opacity:1;fill-rule:nonzero;stroke:none"
         id="path94" />
      <path
         d="m 5592.57,13787.5 c 210.27,338.7 1701.26,1386.1 1701.26,1386.1 l 96.93,-58.5 -1698.36,-1397.5 -99.83,69.9"
         style="fill:#d0d2ee;fill-opacity:1;fill-rule:nonzero;stroke:none"
         id="path96" />
      <path
         d="M 8091.74,14716 C 7600.18,14476.6 6380.83,13323.7 6320.45,13192.3 l 98.93,-98.1 c 475.04,479.2 1428.64,1441.2 1873.96,1596.6"
         style="fill:#d0d2ee;fill-opacity:1;fill-rule:nonzero;stroke:none"
         id="path98" />
      <path
         d="M 8909.49,14123 C 8246.93,13657.5 6966.57,12468.3 6966.57,12468.3 l 90.64,-94.2 c 0,0 1427.59,1288.4 2029.07,1659.6"
         style="fill:#d0d2ee;fill-opacity:1;fill-rule:nonzero;stroke:none"
         id="path100" />
      <path
         d="m 8567.78,13122 c -217.49,-482 91.64,-1077.3 1036.69,-1478.7 945.03,-401.4 1850.93,-324.5 1869.83,428.9 20.7,825.3 -2146.09,2735.2 -2906.52,1049.8"
         style="fill:#3b4172;fill-opacity:1;fill-rule:nonzero;stroke:none"
         id="path102" />
      <path
         d="m 9588.14,15043.6 c 0,0 -1156.94,-2150.9 -1189.85,-3224.3 -32.85,-1073.4 1188.6,-1757 2025.21,-776.8 836.6,980.1 2631.2,2758.2 2133.1,4231.3 -310.4,917.8 -784.2,1339.4 -784.2,1339.4"
         style="fill:#f79074;fill-opacity:1;fill-rule:nonzero;stroke:none"
         id="path104" />
      <path
         d="m 8787.99,13147.6 c -106.96,-242 -264.52,-773.5 -264.52,-773.5 L 10021.6,11886 c 433.5,352.8 663.9,700.6 663.9,700.6 -363.5,558.3 -1375.36,838.1 -1897.51,561"
         style="fill:#fbc593;fill-opacity:1;fill-rule:nonzero;stroke:none"
         id="path106" />
      <path
         d="m 9702.14,15396.8 c 0,0 -906.05,-1323.9 -1140.44,-2288.6 1542.7,733.5 2859.1,-907.8 2761.6,-1463.9 317,352.3 1206.9,1916.8 1325.1,2541.5 174,919.1 -243.1,1686.1 -538.1,2088.8 -807.7,614.6 -2408.16,-877.8 -2408.16,-877.8"
         style="fill:#7477aa;fill-opacity:1;fill-rule:nonzero;stroke:none"
         id="path108" />
      <path
         d="M 9133.98,14878 C 8832,14412.4 8594.1,13344.3 8550.26,13151.6 c 51.28,40.4 387.66,248.6 1008.37,181.9 947.87,-102 1397.27,-776.1 1588.47,-746 191.2,30.1 1132.7,1328.6 1182.8,2039.4 50.1,710.8 -327.3,1219.9 -327.3,1219.9 -578.7,188.7 -1602.5,-880.8 -2679.89,-981.4"
         style="fill:#9596d3;fill-opacity:1;fill-rule:nonzero;stroke:none"
         id="path110" />
      <path
         d="m 8717.7,13717.4 c 573.57,330.2 1297,333.8 1869.5,23.7 572.5,-310.1 985.6,-990.7 1197.4,-1414.8 l 71.5,123.2 c -149,434.2 -587,1193.5 -1237.4,1455.6 -1071.67,431.8 -1854.12,0 -1854.12,0 l -46.88,-187.7"
         style="fill:#d0d2ee;fill-opacity:1;fill-rule:nonzero;stroke:none"
         id="path112" />
      <path
         d="m 9036.63,14682.4 c 573.57,330.2 1207.17,357.5 1789.67,66.6 694.8,-347 1228.4,-1113.3 1440.2,-1537.3 l 67.9,140.5 c -148.9,434.2 -841.9,1262.1 -1485.7,1539.8 -1032.16,445.2 -1778.61,-75.6 -1778.61,-75.6 l -33.46,-134"
         style="fill:#d0d2ee;fill-opacity:1;fill-rule:nonzero;stroke:none"
         id="path114" />
      <path
         d="m 9362.92,15626.4 c 551.7,365.5 1182.28,432.6 1781.98,178.9 715.2,-302.7 1295.9,-1033.9 1533.9,-1443.9 l 10.7,189.4 c -176,423.9 -871.2,1161.8 -1531.2,1398.6 -1058.1,379.5 -1770.38,-187.1 -1770.38,-187.1 l -25,-135.9"
         style="fill:#d0d2ee;fill-opacity:1;fill-rule:nonzero;stroke:none"
         id="path116" />
      <path
         d="m 9322.71,14984.9 c -254.8,-481.3 -534.72,-1573.6 -605.01,-1810.2 64.83,30.2 128.32,43.4 128.32,43.4 175.49,407.8 561.63,1673 608.8,1786.2"
         style="fill:#d0d2ee;fill-opacity:1;fill-rule:nonzero;stroke:none"
         id="path118" />
      <path
         d="m 10525.4,15598.3 c 0,0 -681.03,-1687.8 -892.19,-2327.1 l 168.43,-22.7 c 218.86,469.4 723.76,2039.3 914.16,2415.8"
         style="fill:#d0d2ee;fill-opacity:1;fill-rule:nonzero;stroke:none"
         id="path120" />
      <path
         d="m 11741.1,16222 c 161.4,-355.5 229.2,-869.1 176.7,-1086.1 -169.9,-702.4 -1273.1,-2329.3 -1273.1,-2329.3 l 172.4,-161.5 c 0,0 1100.7,1822 1242.2,2393.3 116.5,469.8 -150.9,1183.6 -150.9,1183.6"
         style="fill:#d0d2ee;fill-opacity:1;fill-rule:nonzero;stroke:none"
         id="path122" />
      <path
         d="m 7360.11,18461.6 c -2570.06,-346.9 -2732.58,-431.4 -4176.63,-979.9 l -412.79,649.2 c 386.3,421.2 2312.9,2228.5 4799.2,2433.6 0,0 1339.77,-1893.7 -209.78,-2102.9"
         style="fill:#fbc593;fill-opacity:1;fill-rule:nonzero;stroke:none"
         id="path124" />
      <path
         d="m 2724.13,18380.8 c 0,0 -197.51,711 -433.04,728.9 -223.65,17 74.15,-682.5 74.15,-682.5"
         style="fill:#f79074;fill-opacity:1;fill-rule:nonzero;stroke:none"
         id="path126" />
      <path
         d="m 2285.35,19068.4 c -128.72,-38.8 20.73,-518.9 91.68,-589.8 70.76,-70.6 114.04,35.5 114.04,35.5 -141.7,244.2 -214.94,488.3 -205.72,554.3"
         style="fill:#fbc593;fill-opacity:1;fill-rule:nonzero;stroke:none"
         id="path128" />
      <path
         d="m 3031.41,18143.8 c -392.21,369.3 -1238.49,1155.2 -1851.57,901.1 -367.352,116.2 -535.887,32.9 -503.137,-82.8 48.879,-173.1 995.327,-300.8 1249.847,-615.2 -229.1,215.9 -848.84,438.3 -1137.921,429.6 -230.582,-6.9 -235.031,-258.9 -28.809,-322.8 422.14,-130.5 971.12,-381.3 1092.91,-564.7 299.14,-451.1 -89.77,-571.7 -351.63,-779.1 -333.61,-264.2 -56.37,-345.3 452.78,-242.8 442.22,89.2 905.03,364.8 1229.6,642.7"
         style="fill:#fbc593;fill-opacity:1;fill-rule:nonzero;stroke:none"
         id="path130" />
      <path
         d="m 10708.4,18922.6 c 987.3,430.1 3248.4,-45.3 4305.1,-353.8 0,0 672.2,-233.7 735.7,549.8 0,0 -1965.9,2475.4 -5010.7,1763 -779.98,-182.6 -1559.88,-2116.1 -30.1,-1959"
         style="fill:#f79074;fill-opacity:1;fill-rule:nonzero;stroke:none"
         id="path132" />
      <path
         d="m 15579.6,19165.9 c -130.1,402 -1521.9,1346.1 -1837.7,1370 -296.9,-89.8 -382,-866.1 -315.9,-1029.4 285,-243.9 1427.5,-505.4 1427.5,-505.4"
         style="fill:#fbc593;fill-opacity:1;fill-rule:nonzero;stroke:none"
         id="path134" />
      <path
         d="m 5282.17,19924.3 c -156.44,-156.2 -82.05,-813.2 -82.05,-1033.5 0,-220.5 -1306.63,-409.4 -2140.9,-1149.4 -277.42,-245.7 -949.41,-755 -1623.95,-865.4 553.32,-142.2 1582.14,439.6 1748.21,605.7 767.62,277 2108.47,779.3 2969.08,779.3 165.49,566.6 -870.39,1663.3 -870.39,1663.3"
         style="fill:#f79074;fill-opacity:1;fill-rule:nonzero;stroke:none"
         id="path136" />
      <path
         d="m 5764.14,19954 c -259.97,526 -1378.86,170.6 -1305.52,-474.6 13.57,-119.1 237.03,225.3 560.54,321.4 480.15,142.6 808.51,24.7 744.98,153.2"
         style="fill:#808486;fill-opacity:1;fill-rule:nonzero;stroke:none"
         id="path138" />
      <path
         d="m 5853.08,20114.6 c -518.35,-76.1 -1416.8,-433.1 -1519.78,-660.8 -161.35,-356.9 237.74,-1371 694.88,-1512 315.56,-97.2 771.87,150.5 1580.24,448.1"
         style="fill:#1a1515;fill-opacity:1;fill-rule:nonzero;stroke:none"
         id="path140" />
      <path
         d="m 4392.79,19473.9 c -111.76,-198.9 28.89,-883.6 336.18,-1133.2 108.63,-52.2 364.6,13.4 353.85,83 -10.91,69.7 -353.59,351.8 -353.85,661.4 39.19,136.5 248.28,188.6 248.28,188.6 2.64,-160.7 174.05,-618.9 369.45,-759.5 126.82,-90.5 361.14,22.1 295.98,106.3 -247.8,247.4 -465.8,970.9 -385.37,1262 -143.73,51.9 -724.96,-160.2 -864.52,-408.6"
         style="fill:#302a2d;fill-opacity:1;fill-rule:nonzero;stroke:none"
         id="path142" />
      <path
         d="m 7429.85,20802.4 c -781.41,-238 -1421.55,-486.4 -1744.97,-482.7 -243.96,2.9 -443.53,-229.7 -276.61,-858.6 137.93,-518.4 606.82,-1313.6 788.69,-1425.1 130.78,-80.4 351.3,-39.7 429.74,142.9 191.32,115.9 432.98,94.9 528.83,212"
         style="fill:#2a388c;fill-opacity:1;fill-rule:nonzero;stroke:none"
         id="path144" />
      <path
         d="m 9302.11,22746.3 c -680.24,-615.8 -288.16,-1563.5 -137.03,-1686.9 147.16,-150.4 792.41,124.3 792.41,124.3 0,0 409.71,-1459.9 -738.73,-1975.6 -1148.39,-515.7 -2062.88,330.6 -2050.7,1377.6 0,0 371.89,109 636.93,251.4 191.39,419.8 -393.73,877.8 -393.73,877.8"
         style="fill:#f79074;fill-opacity:1;fill-rule:nonzero;stroke:none"
         id="path146" />
      <path
         d="m 7707.16,21229.8 c 0,0 414.81,-365.7 608.29,-372.5 212.54,-7.5 444.88,332.6 444.88,332.6 l 236.47,-194.4 81.06,142.7 c -132.13,185.7 -189.88,576.5 -189.88,576.5"
         style="fill:#f25542;fill-opacity:1;fill-rule:nonzero;stroke:none"
         id="path148" />
      <path
         d="m 7429.85,20802.4 c 0,0 56.25,-675.2 902.6,-550.5 846.34,124.7 1062.38,823.1 1063.3,932.7 0.91,109.6 -320.28,159.6 -359.93,83.3 -39.67,-76.1 -266.81,-561.9 -725.63,-659.9 -458.83,-98 -505.2,229.1 -505.2,229.1 5.05,151.5 -345.03,85.4 -375.14,-34.7"
         style="fill:#3847a4;fill-opacity:1;fill-rule:nonzero;stroke:none"
         id="path150" />
      <path
         d="m 15515.3,18359.8 c 537.4,-203.1 731.9,-102.8 1105.4,78.2 373.2,181 680.9,221.3 609.6,481.4 -53.1,193 -544.8,-74.1 -809.1,-101.1 0,0 772.3,631.7 452.8,794.7 -224.8,114.6 -544.3,-251.9 -702.6,-446.4 0,0 -93.6,36.2 -137.9,37.3 0,0 341.1,847.7 64.8,934.9 -253.4,80.3 -383.2,-441.4 -490.2,-830.7 l -120.4,13.1 c 0,0 51.9,804.8 -231.2,775.6 -283.1,-29.1 -223,-561.8 -422.6,-996.4 0,0 -315.3,377.2 -632.8,344.4 -317.3,-32.8 -374.4,-231 -161.3,-337.2 281.7,-140.3 445.7,-782.4 1475.5,-747.8"
         style="fill:#f79074;fill-opacity:1;fill-rule:nonzero;stroke:none"
         id="path152" />
      <path
         d="m 16373,18578 c 6.5,268.9 -735.5,647.5 -1373.5,488.3 -256.2,-64 -368.6,-160 -263.9,-382.8 104.9,-222.5 622.1,-326 797.3,-159.2 181.9,-191.1 834,-196.4 840.1,53.7"
         style="fill:#fbc593;fill-opacity:1;fill-rule:nonzero;stroke:none"
         id="path154" />
      <path
         d="m 10900.9,18938.4 c 376.2,-189.8 786.7,-305.1 1035.3,-288.1 238,16.3 404,296.9 462.8,540.2 0,0 -390.2,58.3 -624.1,53 -219.4,-5.1 -600,1449.5 64.1,1892.9 0,0 226.7,-44.8 469,-85.7 -37.2,529.2 -361.3,632.4 -650.2,409.6 -217.9,-167.9 -769,-67.9 -1429,-99.8 -345.89,-16.7 -721.67,-69.6 -1095.04,-216.3 -213.95,-863 -1526.3,-1156.6 -1346.84,-321.5 -776.68,-23.3 -940.6,-273.3 -1094.71,-722.6 -242.66,-707.5 572.57,-3254.9 826.7,-3898.3 121.05,-306 -589.05,-558.3 -493.58,-824.3 311.77,-869 1897.06,-1166.1 3276.57,-97.6 993.4,769.7 1391.6,986.9 1905.2,716 317.2,9.4 421.2,644.7 -339.4,1236.1 -436.9,339.8 -650.1,1597.7 -650.1,1597.7"
         style="fill:#3847a4;fill-opacity:1;fill-rule:nonzero;stroke:none"
         id="path156" />
      <path
         d="m 5684.88,20277.5 c 0,0 6.55,2.8 249.78,2.8 243.21,0 972.34,448.8 1321.43,416.9 -127.4,-260.8 -897.9,-824.1 -608.45,-1977.8 0,0 -167.62,-110 -259.36,-114.8 0,0 -221.69,347.6 -252.73,448.7 47.93,-293.7 234.86,-629.6 252.73,-716 21.6,-104.4 -298,-238.9 -616.28,406.3 -318.32,645.1 -529.1,1523.1 -87.12,1533.9"
         style="fill:#3847a4;fill-opacity:1;fill-rule:nonzero;stroke:none"
         id="path158" />
      <path
         d="m 11019.6,17023.7 c -695.1,-315.4 -1513.25,-1202.3 -2049.22,-1470.2 -535.89,-267.9 -921.72,18.2 -1241.47,554 -261.06,437.6 -1189.83,2987.7 -925.79,4392.4 241.68,175.4 537.9,156.4 537.9,156.4 208.19,-817.8 1605.63,-772.3 2113.8,487.6 257.98,88.1 932.78,138.4 941.38,0 8.6,-138.4 -117.7,-1957.1 -211.8,-2400.3 -94.1,-443.3 -516.55,-1261.4 -472.06,-1340.8 44.49,-79.4 505.16,602.5 623.16,545.3 117.9,-57.3 380.3,-394.5 684.1,-924.4"
         style="fill:#485bb3;fill-opacity:1;fill-rule:nonzero;stroke:none"
         id="path160" />
      <path
         d="m 7466.3,15733.2 c 183.35,84.6 347.65,-301.1 883.62,-301.1 535.91,0 992.54,301.4 1366.19,675.3 373.79,373.6 1254.89,871.8 1676.19,569.9 -493.2,-120.9 -1272.1,-1047.2 -1953.86,-1503.7 -864.69,-578.9 -2232.24,-197 -1972.14,559.6"
         style="fill:#485bb3;fill-opacity:1;fill-rule:nonzero;stroke:none"
         id="path162" />
      <path
         d="m 11014.6,19514.5 c 35.9,68.7 -202.5,227.6 -148,881.1 54.6,653.5 374.9,855.4 74,878.4 -264,20.1 -885.4,24.8 -1008.11,-84.1 -122.7,-108.9 356.71,-588.3 440.91,-861.6 167.3,-543.3 584.3,-923.1 641.2,-813.8"
         style="fill:#485bb3;fill-opacity:1;fill-rule:nonzero;stroke:none"
         id="path164" />
      <path
         d="m 12261.3,21058.7 c 0,160 -188.1,314 -321.9,285.7 -134.1,-28.1 -605.1,-257.8 -605.1,-1160.4 0,-902.6 468.1,-1286.6 672.6,-1286.6 95.2,0 240.7,292.4 240.7,292.4 l -472.7,21.1 c -499.1,498.9 -379.2,1818.6 64.1,1925.5 220.4,-11.5 422.3,-77.7 422.3,-77.7"
         style="fill:#2a388c;fill-opacity:1;fill-rule:nonzero;stroke:none"
         id="path166" />
      <path
         d="m 11085.9,16877.7 c 352.7,176.3 507.7,246.8 507.7,373.7 0,127 -222,225.8 -641.5,909.6 -351,572.1 -523.5,1092.3 -539.8,1410.7 197.5,-274.4 1203.4,-866.7 1523.9,-866.7 -180.2,-55.3 -750.1,129.7 -750.1,129.7 67.4,-382.9 261.4,-1227.6 636.5,-1602.7 323.8,-312 644.5,-660.7 574.7,-1040.4 -63.3,-104.4 -91.7,-154.7 -190.2,-154.7 -310.2,205 -771.1,170.8 -1709.8,-571.1 -938.81,-741.6 -1708.72,-1025 -2749.7,-714.8 997.27,-275 1924.57,92.2 2595.3,763.1 699,698.9 926.3,933.4 1420.1,898.2 317.2,0 135.6,403 -105.9,451.2 -281.8,56.5 -571.2,14.2 -571.2,14.2"
         style="fill:#2a388c;fill-opacity:1;fill-rule:nonzero;stroke:none"
         id="path168" />
      <path
         d="m 10397.2,20000 c 0,-290.9 -28.8,-642.1 221.8,-1169.5 250.4,-527.5 419.3,104.8 392.9,106.4 -338.5,232.8 -614.7,930.8 -614.7,1063.1"
         style="fill:#2a388c;fill-opacity:1;fill-rule:nonzero;stroke:none"
         id="path170" />
      <path
         d="m 13968.4,19265.9 c 105,141.2 500,96.8 694.5,-215.2 -97.1,2.4 -214.6,-188.9 -214.6,-188.9 -77.3,176.7 -596.4,247.6 -479.9,404.1"
         style="fill:#fbc593;fill-opacity:1;fill-rule:nonzero;stroke:none"
         id="path172" />
      <path
         d="m 15322.5,19952.3 c -178.7,4.3 -203.8,-710.4 -203.8,-710.4 l 312,46.9 c 0,0 86.1,658.8 -108.2,663.5"
         style="fill:#fbc593;fill-opacity:1;fill-rule:nonzero;stroke:none"
         id="path174" />
      <path
         d="m 16104.2,19964.4 c -178.8,4.3 -341.9,-705.1 -341.9,-705.1 l 261.5,-47.2 c 0,0 274.7,747.5 80.4,752.3"
         style="fill:#fbc593;fill-opacity:1;fill-rule:nonzero;stroke:none"
         id="path176" />
      <path
         d="m 16288.6,19073.5 c 0,0 449.9,516 580.8,378.5 106.1,-111.5 -409.3,-533.7 -409.3,-533.7 l -171.5,155.2"
         style="fill:#fbc593;fill-opacity:1;fill-rule:nonzero;stroke:none"
         id="path178" />
      <path
         d="m 16669.7,18682 c 170.8,71 441,208.9 456.6,75.1 11.6,-97 -394.1,-232.7 -394.1,-232.7 l -62.5,157.6"
         style="fill:#fbc593;fill-opacity:1;fill-rule:nonzero;stroke:none"
         id="path180" />
      <path
         d="m 2317.53,17212.4 c 129.6,184.7 88.28,633.3 -419.45,987.7 -507.58,354.2 -1236.107,432 -1194.228,496.9 41.812,65.1 377.398,153.2 853.128,-61.4 -186.55,166.5 -924.23,350.4 -761.609,412.7 125.074,47.8 386.349,-24 386.349,-24 188.93,171.7 907.27,35.6 1799.64,-833.6 126.74,-126.7 221.78,-258.7 454.84,-186.6 232.97,71.9 -115.3,-264.7 -369.17,-388.6 -253.87,-124 -749.5,-403.1 -749.5,-403.1"
         style="fill:#f79074;fill-opacity:1;fill-rule:nonzero;stroke:none"
         id="path182" />
      <path
         d="m 1164.36,19031.1 c 487.83,-85.9 992.94,-454 992.94,-454 -110.93,180.6 -492.6,470.8 -829.84,508.9 0,0 -72.08,-37.3 -163.1,-54.9"
         style="fill:#f25542;fill-opacity:1;fill-rule:nonzero;stroke:none"
         id="path184" />
      <path
         d="m 965.551,18822.9 c 324.879,-89.9 851.219,-307.3 1070.449,-440.1 -252.47,324 -847.85,463.9 -1070.449,440.1"
         style="fill:#f25542;fill-opacity:1;fill-rule:nonzero;stroke:none"
         id="path186" />
      <path
         d="m 3988.47,19165.5 c -450.8,-337.9 -1015.83,-826 -1141.81,-951.8 0,-275.5 323.4,-343.2 538.5,-251.2 -182.44,-16.1 -321.7,170.8 -262.29,319.4 72.25,180.8 575.84,652.7 865.6,883.6"
         style="fill:#f79074;fill-opacity:1;fill-rule:nonzero;stroke:none"
         id="path188" />
      <path
         d="m 13373.5,20771 c 107.2,576.8 -1001.3,963.2 -1329.5,402.8 -60.5,-103.4 324.8,38.3 641.4,-78.8 469.8,-173.7 661.9,-464.9 688.1,-324"
         style="fill:#808486;fill-opacity:1;fill-rule:nonzero;stroke:none"
         id="path190" />
      <path
         d="m 11839,21136.4 c 402.3,211.4 1685.6,-259.5 1528.5,-449.8 -393.1,-133.6 -534.7,-1466.8 -327.1,-1673.5 19.1,-268.5 -689.4,-67.5 -1254.6,132.7 -555,543.2 -412.2,1734.2 53.2,1990.6"
         style="fill:#1a1515;fill-opacity:1;fill-rule:nonzero;stroke:none"
         id="path192" />
      <path
         d="m 4311.73,12248.2 c -160.98,-830.4 2490.5,-3701.9 2586.58,-4254.2 96.05,-552.2 1155.45,-248.9 944.73,428.9 -269.87,867.9 -380.72,2749.6 -1109.11,3089.3"
         style="fill:#f79074;fill-opacity:1;fill-rule:nonzero;stroke:none"
         id="path194" />
      <path
         d="m 8435.59,11697 c -341.82,-773.8 1382.96,-4113 1353.63,-4672.8 -29.25,-559.8 1341.68,-495.1 1243.08,207.8 -149.4,1065.4 1.7,3298.8 -657.3,3872.1"
         style="fill:#f79074;fill-opacity:1;fill-rule:nonzero;stroke:none"
         id="path196" />
      <path
         d="m 10631.4,25253.9 c 0,0 1906.8,-1327.5 1742.3,-2286.9 -94.1,-549.5 -908.5,86 -3087.85,-808.5 -2485.45,1436 -914.96,3810.9 -914.96,3810.9"
         style="fill:#3847a4;fill-opacity:1;fill-rule:nonzero;stroke:none"
         id="path198" />
      <path
         d="m 10870.4,24974.2 c 943.6,-546.3 1534.9,-1518.9 1446.9,-1932.3 -75.5,354.2 -1031.5,1660.9 -1446.9,1932.3"
         style="fill:#485bb3;fill-opacity:1;fill-rule:nonzero;stroke:none"
         id="path200" />
      <path
         d="m 10631.3,24820.1 c 868.1,-492.9 1552.2,-1512.9 1524.7,-1852.2 -27.5,-339.3 -1455,-35 -2626.14,-671.9 -1171.16,-637 292.99,2203.4 382.64,2230.6"
         style="fill:#b8891c;fill-opacity:1;fill-rule:nonzero;stroke:none"
         id="path202" />
      <path
         d="m 10897.2,24526.6 c 1086.7,-709 680.9,-1698.3 -984.7,-1807.6 -1665.57,-109.3 -77.3,1375.4 -77.3,1375.4"
         style="fill:#8b631e;fill-opacity:1;fill-rule:nonzero;stroke:none"
         id="path204" />
      <path
         d="m 5169.65,23968.5 c -134.86,-23.6 -511.08,328 -769.61,13.3 -158.6,-193 199.07,-1021.4 755.13,-971.4 232,20.8 274.26,370.6 272.45,379.6"
         style="fill:#fbc593;fill-opacity:1;fill-rule:nonzero;stroke:none"
         id="path206" />
      <path
         d="m 5091.84,23508.4 c -112.2,327.1 -451.19,377 -594.21,377 240.49,-162.4 486.64,-695.2 486.64,-802.7"
         style="fill:#f79074;fill-opacity:1;fill-rule:nonzero;stroke:none"
         id="path208" />
      <path
         d="m 5005.44,25851.8 c -520.27,-1046.3 -150.67,-2326.2 -128.77,-2632.6 115.94,-1622.8 1681.13,-2342.9 2687.66,-2207.7 1828.19,245.6 3224.57,2181.9 2939.27,3788.7 -634.44,3571.1 -4693.28,2959.5 -5498.16,1051.6"
         style="fill:#f79074;fill-opacity:1;fill-rule:nonzero;stroke:none"
         id="path210" />
      <path
         d="m 10139.6,24037.2 c 176.6,176.5 771.3,827.6 1168.4,497.4 304.3,-253.1 -68.4,-1268.5 -643,-1418.5 -295.6,-77.2 -499.1,300.6 -500.7,311.5"
         style="fill:#f79074;fill-opacity:1;fill-rule:nonzero;stroke:none"
         id="path212" />
      <path
         d="m 9275.54,24977.7 c 325.55,-890.4 271.49,-3326.1 -2093.14,-3742.5 -954.73,-168.1 -2340.22,895.9 -2256.54,2231.2 14.36,229.2 -175.72,531.4 -30.89,1290.4 172.26,79.5 380.37,326.7 380.37,326.7 39.07,-609.2 194.04,-600.3 340.75,-592.3 146.71,7.9 595.28,600 671.6,953.4 283.28,-536.7 736.87,-565.7 935.78,-497.9 198.9,67.8 206.38,396.5 124.99,708.9 684.3,53.4 1813.19,-366.4 1927.08,-677.9"
         style="fill:#fbc593;fill-opacity:1;fill-rule:nonzero;stroke:none"
         id="path214" />
      <path
         d="m 6601.61,23429.5 c 117.72,50.2 223.98,-113.6 133.28,-156.3 -90.71,-42.7 -294.92,87.4 -133.28,156.3"
         style="fill:#fdddc4;fill-opacity:1;fill-rule:nonzero;stroke:none"
         id="path216" />
      <path
         d="m 8155.89,22962.7 c 184.16,-71.5 23.89,-217.6 -207.43,-237.6 76.12,76.4 -3.94,319.7 207.43,237.6"
         style="fill:#f79074;fill-opacity:1;fill-rule:nonzero;stroke:none"
         id="path218" />
      <path
         d="m 5822.71,22416.5 c -79.14,-181.1 58.79,-188.5 262.27,-76.7 -105.65,21.2 -190.13,241.8 -262.27,76.7"
         style="fill:#f79074;fill-opacity:1;fill-rule:nonzero;stroke:none"
         id="path220" />
      <path
         d="m 6092.71,23593.3 c 77.2,177.9 -240.56,1158.1 -829.83,1032.3 -548.73,-117.2 -463.02,-871 -327,-1091.8 262.32,-426.1 1005.73,-288.5 1156.83,59.5"
         style="fill:#772e19;fill-opacity:1;fill-rule:nonzero;stroke:none"
         id="path222" />
      <path
         d="m 6093.43,23573.4 c 72.54,167.1 -223.85,1073.1 -779.71,965.6 -486.51,-94 -425.68,-818 -295.56,-1024 257.18,-407.3 933.3,-268.7 1075.27,58.4"
         style="fill:#fabfca;fill-opacity:1;fill-rule:nonzero;stroke:none"
         id="path224" />
      <path
         d="m 6093.43,23573.4 c 68.66,158 -174.99,1046.7 -642.19,945.1 -523.21,-113.9 -509.32,-864.4 -342.66,-1074.8 230.53,-291.1 850.63,-179.6 984.85,129.7"
         style="fill:#ffffff;fill-opacity:1;fill-rule:nonzero;stroke:none"
         id="path226" />
      <path
         d="m 5552.1,24450.6 c -580.02,0 -514.01,-1020.2 -207.5,-1154 210.75,-59.2 580.25,0.2 675.94,187.5 98.54,192.9 -68,966.5 -468.44,966.5"
         style="fill:#63a46b;fill-opacity:1;fill-rule:nonzero;stroke:none"
         id="path228" />
      <path
         d="m 5353.33,25578.8 c 110.33,22.8 421.64,-267.1 316.99,-266.3 -509.44,4.5 -633.07,-202.9 -666.79,-155.2 -69.6,98.3 210.61,392.8 349.8,421.5"
         style="fill:#772e19;fill-opacity:1;fill-rule:nonzero;stroke:none"
         id="path230" />
      <path
         d="m 8079.8,25924 c -141.41,15.7 -429.55,-201.2 -418.64,-282.7 10.88,-81.6 434.93,130.4 1103.72,-201.3 -38.01,228.4 -538.26,467.6 -685.08,484"
         style="fill:#772e19;fill-opacity:1;fill-rule:nonzero;stroke:none"
         id="path232" />
      <path
         d="m 5585.28,24245.2 c -546.93,-55.5 -424.29,-1060.3 80.8,-938.3 505.12,122.1 272.93,974.2 -80.8,938.3"
         style="fill:#131b22;fill-opacity:1;fill-rule:nonzero;stroke:none"
         id="path234" />
      <path
         d="m 5030.25,23821.6 c 58.06,128.7 362.98,8.9 347.42,-106.2 -15.55,-115 -435.49,-89 -347.42,106.2"
         style="fill:#ffffff;fill-opacity:1;fill-rule:nonzero;stroke:none"
         id="path236" />
      <path
         d="m 7462.91,23725.9 c -147.33,149.9 -156.14,1239.5 612.99,1372 684.43,118 1002.64,-810.7 869.21,-1073.8 -241.76,-476.9 -1194,-591.5 -1482.2,-298.2"
         style="fill:#772e19;fill-opacity:1;fill-rule:nonzero;stroke:none"
         id="path238" />
      <path
         d="m 7455.51,23727.1 c -133.33,135.7 -140.9,1112.8 554.8,1235.2 695.71,122.3 907.47,-727.1 786.72,-965.3 -218.86,-431.6 -1080.64,-535.3 -1341.52,-269.9"
         style="fill:#fabfca;fill-opacity:1;fill-rule:nonzero;stroke:none"
         id="path240" />
      <path
         d="m 7588.38,23715.5 c -183.01,152.3 -187.98,1068.6 454.33,1181.6 642.29,112.9 795.78,-695.7 684.31,-915.6 -202.12,-398.5 -874.55,-485.8 -1138.64,-266"
         style="fill:#ffffff;fill-opacity:1;fill-rule:nonzero;stroke:none"
         id="path242" />
      <path
         d="m 8116.52,24817.5 c -519.62,-51.1 -634.92,-1076 -254.36,-1225.3 322.62,-50.1 777.05,122.3 845.58,273.1 68.52,150.9 -27.2,1007.6 -591.22,952.2"
         style="fill:#63a46b;fill-opacity:1;fill-rule:nonzero;stroke:none"
         id="path244" />
      <path
         d="m 8219.91,24593.3 c -450.74,23.6 -549.21,-1045.5 21.13,-996.5 570.36,49 443.37,972.1 -21.13,996.5"
         style="fill:#131b22;fill-opacity:1;fill-rule:nonzero;stroke:none"
         id="path246" />
      <path
         d="m 7569.97,24094.4 c 61.7,136.9 386.01,9.4 369.45,-112.9 -16.51,-122.3 -463.13,-94.7 -369.45,112.9"
         style="fill:#ffffff;fill-opacity:1;fill-rule:nonzero;stroke:none"
         id="path248" />
      <path
         d="m 8408.95,24095.6 c -115.79,12.7 -90.8,-186.8 0,-197.2 90.81,-10.6 115.85,184.5 0,197.2"
         style="fill:#ffffff;fill-opacity:1;fill-rule:nonzero;stroke:none"
         id="path250" />
      <path
         d="m 5780.42,23761.5 c -115.81,12.6 -90.79,-186.8 0,-197.3 90.8,-10.4 115.79,184.6 0,197.3"
         style="fill:#ffffff;fill-opacity:1;fill-rule:nonzero;stroke:none"
         id="path252" />
      <path
         d="m 8911.4,25848 c 733.54,-357.6 894.24,-1574.6 770.98,-2316.8 212.25,-35.9 314.93,66.5 314.93,66.5 169.09,672.5 712.69,925.4 712.69,925.4 224.3,345.6 12.5,769.5 -277.1,1159.3"
         style="fill:#1a1515;fill-opacity:1;fill-rule:nonzero;stroke:none"
         id="path254" />
      <path
         d="m 9176.56,25660.2 c 454.13,-424.6 508.46,-1495.4 342.76,-1935.7 287.26,229.7 453.81,792.6 427.17,1044.3 77.11,-342.8 7.04,-565.2 7.04,-565.2 258.87,222.4 401.07,630.3 401.07,630.3 -496.98,584.3 -1178.04,826.3 -1178.04,826.3"
         style="fill:#392933;fill-opacity:1;fill-rule:nonzero;stroke:none"
         id="path256" />
      <path
         d="m 8090.78,22882.5 c 141.26,-38.2 -50.49,-201.9 -606.92,-329.1 278.64,84 484.69,168.5 540.72,248.1 45.63,64.9 29.81,90.8 66.2,81"
         style="fill:#c22d32;fill-opacity:1;fill-rule:nonzero;stroke:none"
         id="path258" />
      <path
         d="m 6263.68,22349.8 c -116.97,-26.8 -241.66,-13.6 -291.6,35.8 -31.38,30.9 -60.87,45 -72.81,12 -28.71,-79.2 81.65,-101.6 364.41,-66.9"
         style="fill:#c22d32;fill-opacity:1;fill-rule:nonzero;stroke:none"
         id="path260" />
      <path
         d="m 5508.06,25816 c -964.76,-129.1 -1467.37,-1061.5 -1273.18,-1238 194.22,-176.6 1273.18,1111.1 1690.63,1450.1 -1008.47,-750.4 -555.05,-1236 -380.08,-1271.3 175.02,-35.3 766.47,1341.9 766.47,1341.9 0,0 471.95,-996.7 842.7,-974.9 370.79,21.7 60.61,851.3 -121.8,1045.5 1060.68,68.1 1069.59,1529.3 -257.58,1462.5 -1327.18,-66.9 -2473.55,-1361.2 -1547.7,-1623.6"
         style="fill:#1a1515;fill-opacity:1;fill-rule:nonzero;stroke:none"
         id="path262" />
      <path
         d="m 6611.95,25950.5 c 150.29,-472 484.45,-798.1 660.24,-716.9 113.02,238.6 -73.65,653.8 -329.54,820.5"
         style="fill:#392933;fill-opacity:1;fill-rule:nonzero;stroke:none"
         id="path264" />
      <path
         d="m 5610.56,25585.6 c -531.26,-393.3 -566.06,-816 -496.81,-899.8 -254.58,169.8 -358.49,603.5 401.28,1031.7"
         style="fill:#1a1515;fill-opacity:1;fill-rule:nonzero;stroke:none"
         id="path266" />
      <path
         d="m 6414.52,26019.2 c -345.05,-212.1 -209.81,-913.2 -53.96,-1139.2 -304.41,207.7 -518.1,734.8 -34.54,1174.1"
         style="fill:#1a1515;fill-opacity:1;fill-rule:nonzero;stroke:none"
         id="path268" />
      <path
         d="m 6718.05,22324.7 1051.63,306 c 0,0 -558.05,-422.2 -883.91,-482.6 -325.86,-60.3 -537.45,50.2 -770.15,170.2 146.81,-19.5 463.09,-7.8 602.43,6.4"
         style="fill:#f26473;fill-opacity:1;fill-rule:nonzero;stroke:none"
         id="path270" />
      <path
         d="m 6688.63,22461.5 c 142.73,-23.8 154.68,79.1 381.45,100.8 226.7,21.7 672.28,34.1 911.35,185.5 -837.44,-429.5 -1575.39,-511.7 -1905.29,-416.1 246.34,10.9 351.96,173.3 612.49,129.8"
         style="fill:#e93b42;fill-opacity:1;fill-rule:nonzero;stroke:none"
         id="path272" />
      <path
         d="m 6504.61,23213.3 c -102.1,-48.5 -99.05,-101.5 -207.1,-160.8 -143.68,-78.9 -17.83,-160.9 147.2,-147.1 165.03,13.8 338.72,29.7 498.72,73.2 160.04,43.5 85.32,158.3 -47.2,172.7 -98.78,10.8 -270.56,119.7 -391.62,62"
         style="fill:#f89d81;fill-opacity:1;fill-rule:nonzero;stroke:none"
         id="path274" />
      <path
         d="m 6447.11,23034.4 c -33.04,28.9 -206.28,-32.2 -180.11,-65.5 45.08,-56.9 246.95,7 180.11,65.5"
         style="fill:#cf5a44;fill-opacity:1;fill-rule:nonzero;stroke:none"
         id="path276" />
      <path
         d="m 7000.1,23379.6 c 179.82,-77.5 241.39,-327.1 -29.22,-389.9 -83.05,-28.3 -6.81,74.1 -6.81,74.1 125.47,66.9 117.84,147.4 36.03,315.8"
         style="fill:#f89d81;fill-opacity:1;fill-rule:nonzero;stroke:none"
         id="path278" />
      <path
         d="m 6782.22,23082 c 28.83,42.3 231.46,20.7 212.88,-21.4 -29.27,-66.5 -262.9,-52.1 -212.88,21.4"
         style="fill:#cf5a44;fill-opacity:1;fill-rule:nonzero;stroke:none"
         id="path280" />
      <path
         d="m 10432.9,23835.2 c 304.7,426.4 698.6,562.7 875.1,402 -240.5,-84.5 -642,-389.8 -642,-520 156.1,-155.9 -54.9,-321.5 -165.4,-321.5 260,260.2 -67.7,439.5 -67.7,439.5"
         style="fill:#f25542;fill-opacity:1;fill-rule:nonzero;stroke:none"
         id="path282" />
      <path
         d="m 10234,24047.1 c 162.5,305.5 648.7,708.9 997.1,539.5 115.6,-87.4 88.5,-156 88.5,-156 -107.4,107.2 -711.4,-15.8 -1085.6,-383.5"
         style="fill:#fbc593;fill-opacity:1;fill-rule:nonzero;stroke:none"
         id="path284" />
      <path
         d="m 4794.74,25440 c -473.72,-207.3 -652.75,-702.7 -473.47,-813.4 368.04,540.5 751.69,868 946.78,959 -342.83,-239.2 -320.19,-615.2 -194.67,-705.6 -69.85,277.3 232.04,645.3 416.02,780.2 -211.78,-397.1 -118,-683.3 25.63,-752.3 89.63,240.3 600.59,1099.4 600.59,1099.4 -326.28,-100 -560.27,-642.2 -560.27,-642.2 39.87,283.2 129.86,540.8 129.86,540.8 -231.53,-106.6 -890.47,-465.9 -890.47,-465.9"
         style="fill:#392933;fill-opacity:1;fill-rule:nonzero;stroke:none"
         id="path286" />
      <path
         d="m 8540.87,12587.5 c 838.45,264.7 2014.13,-431.5 2473.73,-1093.1 25.8,-152.3 -134.7,-373.2 -210.2,-427.7 72.2,-86.1 50.2,-249.7 -2.1,-283.1 0.8,-40.3 99.5,-215 80.6,-422.6 -18.8,-207.7 -1201.6,-1017.5 -2271.07,-383 -220.17,131.3 -485.55,935.8 -467.72,1498.9 17.86,563.2 187.38,1009.4 396.76,1110.6"
         style="fill:#1a1515;fill-opacity:1;fill-rule:nonzero;stroke:none"
         id="path288" />
      <path
         d="m 8265.8,12198 c -143.72,-77.7 193.53,397.5 451.9,430.5 1070.6,97.9 1611.6,-449.4 1844.3,-808 75.5,-176.2 16.7,-357.3 -35.7,-357.9 -52.3,-0.7 -341.9,43.3 -341.9,43.3 0,0 362.8,-249.5 335.6,-373.2 -27.2,-123.8 -335.6,-186.7 -335.6,-186.7 0,0 213.2,-107 279.7,-195 66.5,-88.1 51.9,-457.6 -64,-583.4 -115.9,-125.9 -1014.47,-712.6 -1863.76,-121.2 -90.28,137.2 -124.92,204.6 -124.92,204.6 264.66,-235.6 1471.62,-324.1 1590.98,537.8 119.3,861.8 -1054.69,1777.5 -1736.6,1409.2"
         style="fill:#302a2d;fill-opacity:1;fill-rule:nonzero;stroke:none"
         id="path290" />
      <path
         d="m 5066.81,13526.9 c 754.93,-212.2 2023.28,-1629 2058.52,-1736.6 35.24,-107.7 -118.37,-206.4 -118.37,-206.4 0,0 95,-121.1 69.06,-247.9 -25.96,-126.7 -1433.51,-862 -2216.74,-645 -320.85,160.5 -792.79,1179.8 -698.43,1727.1 94.37,547.4 688.92,1122.8 905.96,1108.8"
         style="fill:#1a1515;fill-opacity:1;fill-rule:nonzero;stroke:none"
         id="path292" />
      <path
         d="m 5050.66,13526.6 c 535.13,-190 1522.77,-1190.3 1441.01,-1586.6 -144.64,62.9 -522.1,257.9 -522.1,257.9 195,-232.7 440.39,-396.3 415.21,-459.2 -25.18,-62.9 -635.43,-265.8 -635.43,-265.8 0,0 471.9,64.4 566.23,-11 94.33,-75.5 106.94,-308.3 31.45,-396.4 -75.49,-88.1 -1264.52,-585.1 -1579.05,-276.8 572.45,144.7 773.76,748.6 603.9,1604.3 -169.86,855.5 -434.08,1050.6 -434.08,1050.6 l 112.86,83"
         style="fill:#302a2d;fill-opacity:1;fill-rule:nonzero;stroke:none"
         id="path294" />
      <path
         d="m 8250.36,12317.5 c -428.2,-344 -389.56,-1249.2 -13.41,-1703.7 376.13,-454.4 1326.32,-435 1617.84,-85 291.51,350 319.61,1117.4 126.47,1438.8 -327.1,544.3 -1222.69,758.2 -1730.9,349.9"
         style="fill:#808486;fill-opacity:1;fill-rule:nonzero;stroke:none"
         id="path296" />
      <path
         d="m 4796.87,13399.8 c 390.3,-14.5 697.87,-909.3 625.44,-1535.3 -72.44,-626 -573.74,-900.3 -870.42,-918.8 -296.67,-18.5 -617.51,789.4 -504.27,1428.2 113.23,638.8 488.78,1035.7 749.25,1025.9"
         style="fill:#808486;fill-opacity:1;fill-rule:nonzero;stroke:none"
         id="path298" />
      <path
         d="m 8317.49,12303.1 c -371.57,-311.2 -419.67,-960.5 -182.73,-1388.2 236.95,-427.7 1009.99,-466.6 1343.39,-170.9 333.41,295.7 467.93,1043.8 235.94,1379.9 -242.91,351.8 -967.31,538.8 -1396.6,179.2"
         style="fill:#a4a6a6;fill-opacity:1;fill-rule:nonzero;stroke:none"
         id="path300" />
      <path
         d="m 4603.98,13343.6 c 223.67,150.6 591.79,-390.7 547.73,-1070.1 -44.05,-679.5 -758.69,-1240.6 -954.99,-982.1 -196.3,258.6 -416.46,1497.9 407.26,2052.2"
         style="fill:#a4a6a6;fill-opacity:1;fill-rule:nonzero;stroke:none"
         id="path302" />
      <path
         d="m 12446.5,21446.8 c -194.3,-24.5 -0.9,-158.2 365.9,-309.2 366.8,-151 546.4,-90.2 459.4,0 -87,90.2 -318.7,373.1 -825.3,309.2"
         style="fill:#a4a6a6;fill-opacity:1;fill-rule:nonzero;stroke:none"
         id="path304" />
      <path
         d="m 5113.58,20190.2 c 170.57,23.3 191.36,-76.6 -106.96,-263.9 -298.32,-187.3 -544.64,-318.1 -504.9,-172.5 39.74,145.6 298.62,393.7 611.86,436.4"
         style="fill:#a4a6a6;fill-opacity:1;fill-rule:nonzero;stroke:none"
         id="path306" />
      <path
         d="M 9746.53,7064.3 C 9606.44,6524.9 8405.18,4946.7 9847.77,4737.9 11107.8,4555.4 11285.4,6249.7 11113.2,7151.9"
         style="fill:#f79074;fill-opacity:1;fill-rule:nonzero;stroke:none"
         id="path308" />
      <path
         d="M 6921.08,7907.4 C 6859.75,7261 5284.63,6873.8 5383.31,6479.9 c 98.67,-393.8 2702.1,416.3 2726.8,710.3 52.56,625.7 -239.39,1107.2 -239.39,1107.2"
         style="fill:#f79074;fill-opacity:1;fill-rule:nonzero;stroke:none"
         id="path310" />
      <path
         d="m 9712.34,7196.6 c -115.95,361.6 -285.83,833.5 -399.07,965.6 -113.23,132.1 -59.56,238.5 31.57,227.8 411.95,-331.6 1233.26,-141.2 1582.26,301.5 132,27.5 195,-123.5 149.4,-293.4 -45.7,-169.8 36.2,-953.1 0,-1160.7 -36.3,-207.6 -1097.2,-591.3 -1364.16,-40.8"
         style="fill:#1a1515;fill-opacity:1;fill-rule:nonzero;stroke:none"
         id="path312" />
      <path
         d="m 9693.87,8048.9 c -144.69,-62.9 -215.72,0 -215.72,0 86.77,-232.7 258.57,-790 373.97,-896.7 115.4,-106.7 851.48,-24.9 886.08,151.3 34.6,176.1 -39.1,808.3 -39.1,808.3 -225.1,-154.1 -600.9,-40.8 -600.9,-40.8"
         style="fill:#302a2d;fill-opacity:1;fill-rule:nonzero;stroke:none"
         id="path314" />
      <path
         d="m 6747.64,7982.9 c 14.6,195 -306.2,666.8 -425.75,773.8 -119.55,106.9 -214.24,196.3 -103.98,308.9 236.06,-183.1 1179.8,84.8 1393.67,309.4 132.07,86.3 163.52,-96.1 144.64,-228.2 -18.87,-132.2 207.61,-761.3 226.49,-950 18.87,-188.7 -1149.1,-495 -1235.07,-213.9"
         style="fill:#1a1515;fill-opacity:1;fill-rule:nonzero;stroke:none"
         id="path316" />
      <path
         d="m 7522.34,8997.3 c -223.8,-146.2 -846.61,-292.5 -1077.82,-250 231.21,-240.7 401.07,-772 401.07,-772 l 616.73,-20.7 c 142.91,325.5 60.02,1042.7 60.02,1042.7"
         style="fill:#302a2d;fill-opacity:1;fill-rule:nonzero;stroke:none"
         id="path318" />
      <path
         d="m 8416.34,7021.9 c 171.91,-192.5 201.01,-587.6 164.27,-683.9 -83.05,-217.5 -756.34,-400.9 -974.09,-400.9 -217.7,0 -538.9,-222.9 -1332.71,-484.8 -478.32,-157.9 -1047.27,-129.9 -1123.62,-68.8 -76.41,61.1 -309.19,370.2 -194.58,431.4"
         style="fill:#bbb51a;fill-opacity:1;fill-rule:nonzero;stroke:none"
         id="path320" />
      <path
         d="m 11400,6392.6 c 91.3,-136 205.4,-618 114.1,-927 -91.2,-309 -205.4,-1573.3 -1620.28,-1546.7 -901.42,75.9 -1015.55,508.6 -947.1,854.6"
         style="fill:#bbb51a;fill-opacity:1;fill-rule:nonzero;stroke:none"
         id="path322" />
      <path
         d="m 11211.5,7488.4 c 217,51.8 291.2,-357.2 165.7,-455.6 106.5,-303.8 124,-649 -67.3,-1532.7 -191.4,-883.6 -709.7,-1231.8 -1698.05,-1089.5 -988.41,142.3 -877.45,974.3 -553.33,1580.3 352.59,659.3 430.34,992.2 430.34,992.2 -197.3,179.5 -63.84,529.7 57.38,529.7 152.63,0 33.31,-361.8 659.36,-369.5 623.8,-7.8 794.5,248.5 1005.9,345.1"
         style="fill:#222942;fill-opacity:1;fill-rule:nonzero;stroke:none"
         id="path324" />
      <path
         d="m 11169.5,7422.3 c 82.5,55.4 122,-208.7 47,-313.1 -75.2,-104.3 -462.1,-246.2 -462.1,-246.2 0,0 144.5,-5.6 258.1,6.2 113.7,11.8 27.6,-636.1 -101.7,-1109.6 -129.2,-473.5 -422,-1189.2 -1335.34,-1124.8 -913.35,64.4 -749.58,836.4 -576.22,1237.2 173.37,400.8 521.6,978.4 489.62,1111.1 -32,132.7 -116.19,292.1 57.44,398.7 51,-149.7 228.79,-81 266.38,-272.6 37.59,-191.6 -156,-587.4 -369.02,-1004.3 -213,-416.8 -269.79,-855.5 158.81,-897 428.63,-41.3 643.53,269 695.63,720 52.1,451.1 -33,1089.5 237.1,1181.3 270.1,91.8 502.5,224.6 634.3,313.1"
         style="fill:#374172;fill-opacity:1;fill-rule:nonzero;stroke:none"
         id="path326" />
      <path
         d="m 9207.26,5072.7 c 149.57,268.9 860.44,88.6 845.74,-55.2 -35.6,-345.8 -998.71,-219.9 -845.74,55.2"
         style="fill:#3f4b7d;fill-opacity:1;fill-rule:nonzero;stroke:none"
         id="path328" />
      <path
         d="m 9098.41,4736.9 c 371.81,228.3 894.44,136.8 1175.79,-106.1 115.2,-99.4 -1039.16,-122.1 -1039.16,-122.1"
         style="fill:#222942;fill-opacity:1;fill-rule:nonzero;stroke:none"
         id="path330" />
      <path
         d="m 9046.1,4589.8 c 459.74,262.4 1041.7,150.5 1395.4,-153 353.8,-303.5 -373.2,-264.1 -829.65,-189.3"
         style="fill:#bbb51a;fill-opacity:1;fill-rule:nonzero;stroke:none"
         id="path332" />
      <path
         d="m 7998.48,8362.2 c 249.81,73 271.49,-168.1 226.93,-316.6 171.88,-286.4 320.81,-699 263.52,-1065.7 -57.31,-366.7 -584.44,-286.5 -1065.71,-573 -481.34,-286.4 -1363.71,-790.7 -2452.36,-676 -320.85,240.6 -325.04,914.1 190.8,1133.1 515.81,219 1196.18,514.8 1315.85,927.4 -37.25,229.8 7.49,372.7 134.92,355.2 197.36,-153.7 1216.45,28 1386.05,215.6"
         style="fill:#222942;fill-opacity:1;fill-rule:nonzero;stroke:none"
         id="path334" />
      <path
         d="m 8006.56,8322.7 c 90.09,36.1 119.9,-215.9 24.99,-282.9 -94.96,-66.8 -547.18,-143.3 -547.18,-143.3 172.41,-63.5 343.62,0 343.62,0 173.56,-208.4 222.69,-676.1 140.64,-817 -81.99,-140.9 -478.41,-90 -862.31,-382.8 -383.96,-292.8 -1117.77,-783 -1917.27,-742.5 -264.59,224.2 -410.45,244.9 -410.45,244.9 -99.94,286.5 145.86,766.1 685.04,796.1 -53.23,-56.2 -9.88,-269.1 407.58,-183.2 514.78,106 924.05,381.5 1051.19,658 127.1,276.5 123.89,561.7 293.78,646.7 169.91,84.9 565.5,116.1 790.37,206"
         style="fill:#374172;fill-opacity:1;fill-rule:nonzero;stroke:none"
         id="path336" />
      <path
         d="m 4903.33,6720.7 c 285.72,264 1056.86,-85 632.88,-394.7 -424.01,-309.7 -927.55,122.5 -632.88,394.7"
         style="fill:#3f4b7d;fill-opacity:1;fill-rule:nonzero;stroke:none"
         id="path338" />
      <path
         d="m 4748.55,6098.3 c 175.86,120.4 398,-324.4 787.66,-384.1 -129.9,-189.6 -386.02,-330.7 -386.02,-330.7 -394.45,259.2 -495.1,650.8 -401.64,714.8"
         style="fill:#bbb51a;fill-opacity:1;fill-rule:nonzero;stroke:none"
         id="path340" />
      <path
         d="m 6682.69,8113.8 c 76.83,-112.6 -257.29,-557.9 -571.43,-777.6 -314.13,-219.8 -810.63,-361.6 -663.12,-488.9 196.63,-169.8 712.92,-72 1175.98,241.2 455.21,307.9 449.72,937.9 649.59,1025.3 l 185.34,39.7 c 1.21,180.9 -783.54,205.2 -776.36,-39.7"
         style="fill:#50aae3;fill-opacity:1;fill-rule:nonzero;stroke:none"
         id="path342" />
      <path
         d="m 9752.42,7272.1 c 101.33,273.2 959.08,212.1 994.98,-46.5 -96.7,-31.5 -212,-57.5 -212,-57.5 -192.7,-97.8 -172.1,-380.2 -206.5,-869 -34.5,-488.9 -158.4,-1067.2 -626.59,-1087.8 -468.2,-20.7 -392.46,501.3 -144.62,966.7 247.91,465.4 426.9,940.5 194.73,1094.1"
         style="fill:#50aae3;fill-opacity:1;fill-rule:nonzero;stroke:none"
         id="path344" />
      <path
         d="m 9269.84,5595.6 c 117.68,0.8 129.82,-160.5 -12.31,-178.7 -142.17,-18.1 -130.55,177.6 12.31,178.7"
         style="fill:#1d2437;fill-opacity:1;fill-rule:nonzero;stroke:none"
         id="path346" />
      <path
         d="m 9372.04,6104.9 c 117.63,0.8 129.6,-160.2 -12.57,-178.7 -142.23,-18.3 -130.69,177.7 12.57,178.7"
         style="fill:#1d2437;fill-opacity:1;fill-rule:nonzero;stroke:none"
         id="path348" />
      <path
         d="m 9556.94,6592.8 c 117.9,0.8 129.8,-160.4 -12.38,-178.7 -142.08,-18.2 -130.53,177.6 12.38,178.7"
         style="fill:#1d2437;fill-opacity:1;fill-rule:nonzero;stroke:none"
         id="path350" />
      <path
         d="m 10565.1,7049.4 c 118.1,6.7 138.9,-153.2 -2.5,-178 -141.6,-25.2 -140.9,170.2 2.5,178"
         style="fill:#1d2437;fill-opacity:1;fill-rule:nonzero;stroke:none"
         id="path352" />
      <path
         d="m 10161.1,5388.3 c 118,6.7 138.7,-153.1 -2.6,-178.1 -141.6,-25.1 -140.6,170.4 2.6,178.1"
         style="fill:#1d2437;fill-opacity:1;fill-rule:nonzero;stroke:none"
         id="path354" />
      <path
         d="m 10347.1,5939.9 c 118,6.6 139.1,-153.2 -2.7,-178.1 -141.5,-24.9 -140.6,170.5 2.7,178.1"
         style="fill:#1d2437;fill-opacity:1;fill-rule:nonzero;stroke:none"
         id="path356" />
      <path
         d="m 10462.9,6420.6 c 118.1,6.7 139,-153.1 -2.6,-178.2 -141.5,-25.1 -140.6,170.5 2.6,178.2"
         style="fill:#1d2437;fill-opacity:1;fill-rule:nonzero;stroke:none"
         id="path358" />
      <path
         d="m 10496.3,6990.6 c -171.5,-227 -786.03,-478.8 -922.18,-514.9 -75.29,-64.5 26.08,-96.6 26.08,-96.6 213.65,19.6 708.2,197.8 979.5,522.8 52.6,91.7 -38.1,139.2 -83.4,88.7"
         style="fill:#dddb19;fill-opacity:1;fill-rule:nonzero;stroke:none"
         id="path360" />
      <path
         d="m 9813.16,7005.8 c 64.65,-253.3 551.34,-589.2 667.94,-643.9 44.3,-75.5 -69.5,-95.2 -69.5,-95.2 -200.3,47.5 -602.96,292.7 -720.63,659.6 -9.7,100 100.93,137.2 122.19,79.5"
         style="fill:#dddb19;fill-opacity:1;fill-rule:nonzero;stroke:none"
         id="path362" />
      <path
         d="m 10350.2,6379 c -208.6,-195.2 -864.26,-339.1 -1006.48,-351.4 -85.59,-50.8 10.31,-100.6 10.31,-100.6 216.92,-17.3 740.37,74.2 1064.97,349.6 67.4,81.8 -15.4,144.8 -68.8,102.4"
         style="fill:#dddb19;fill-opacity:1;fill-rule:nonzero;stroke:none"
         id="path364" />
      <path
         d="m 9631.08,6534.8 c 67.54,-252.7 543.12,-615.5 656.42,-676.8 44.1,-76.9 -64.8,-88.8 -64.8,-88.8 -193.6,60.6 -586.22,328.7 -707.43,696.2 -11.46,98.5 94.11,127.1 115.81,69.4"
         style="fill:#dddb19;fill-opacity:1;fill-rule:nonzero;stroke:none"
         id="path366" />
      <path
         d="m 10261.4,5895.8 c -202.9,-194.5 -862.43,-345.1 -1006.23,-359.4 -84.71,-51.4 15.12,-98.6 15.12,-98.6 221.38,-13.5 748.91,83.6 1066.01,358.8 64.5,81.2 -22.6,141.8 -74.9,99.2"
         style="fill:#dddb19;fill-opacity:1;fill-rule:nonzero;stroke:none"
         id="path368" />
      <path
         d="m 9428.54,6027.7 c 95.66,-254 626.46,-614.5 750.56,-675.1 53.9,-76.6 -58.4,-89.7 -58.4,-89.7 -207.4,58.8 -642.57,324.3 -805.67,693.4 -21.44,99.5 85.27,129.7 113.51,71.4"
         style="fill:#dddb19;fill-opacity:1;fill-rule:nonzero;stroke:none"
         id="path370" />
      <path
         d="m 10089.8,7200.2 c 131.9,173 615.8,433.1 807,163.3 191.5,-270.2 79.1,-601.7 -161,-624.1 -239.9,-22.6 -578.5,353.4 -623.9,388.5 -22.1,72.3 17.6,83.1 107.2,64.2 89.8,-18.6 424,-377.5 535.3,-329.1 149.6,65.1 76.8,392.9 -41.8,466.8 -119,73.9 -496.5,-112.7 -531.8,-172"
         style="fill:#dddb19;fill-opacity:1;fill-rule:nonzero;stroke:none"
         id="path372" />
      <path
         d="m 10049.4,7190.3 c -127.85,5.1 -908.76,-388.4 -1201.03,-783.9 -11.5,-66.2 75.49,-179.4 114.71,-107.8 39.3,71.3 732.94,713.9 1148.82,829.3"
         style="fill:#dddb19;fill-opacity:1;fill-rule:nonzero;stroke:none"
         id="path374" />
      <path
         d="m 10155,7240.6 c -82.9,236.8 -649.02,386 -856.68,68.7 -207.47,-317.3 -24.08,-502.4 187.11,-335.4 211.45,167.2 502.99,120.4 598.57,161.4 95.4,41.2 22.8,79.4 -121.46,112.2 -235.54,53.8 -561.45,-227.4 -623.8,-200.4 -62.55,26.8 65.18,292.3 295.78,329.9 166.1,27.3 362.67,-75.4 407.98,-205.3"
         style="fill:#dddb19;fill-opacity:1;fill-rule:nonzero;stroke:none"
         id="path376" />
      <path
         d="m 10165.6,7139.3 c -7.4,-115.9 155.3,-488.8 792.6,-611.1 89.1,-14.6 66.5,-145.1 -51.7,-139.6 -118.1,5.5 -921.97,319.9 -843.2,739.9 26.5,71.7 102.3,10.8 102.3,10.8"
         style="fill:#dddb19;fill-opacity:1;fill-rule:nonzero;stroke:none"
         id="path378" />
      <path
         d="m 10077.7,7302.3 c 94.9,25.4 321.2,-138.7 131.2,-199.6 -189.9,-61 -301.38,154.2 -131.2,199.6"
         style="fill:#dddb19;fill-opacity:1;fill-rule:nonzero;stroke:none"
         id="path380" />
      <path
         d="m 6877.7,8077 c 153.6,143.9 656.98,314.6 796.26,26.5 139.4,-288.5 -20.99,-586.9 -253.66,-569.8 -232.63,16.9 -495.43,430 -533.13,470.7 -9.47,72.6 30.12,76.5 112.68,44.1 82.65,-32.2 344.04,-428.2 458.02,-399.9 153.12,38.2 136.28,362.7 34.9,452.3 -101.7,89.5 -491.92,-28.1 -535.02,-79"
         style="fill:#dddb19;fill-opacity:1;fill-rule:nonzero;stroke:none"
         id="path382" />
      <path
         d="m 6837.56,8074 c -121.21,25.4 -599.51,-70.1 -941.84,-400.7 -21.59,-61.3 43.32,-183.2 92.27,-121.2 48.88,61.8 483.86,408.9 899.18,452.3"
         style="fill:#dddb19;fill-opacity:1;fill-rule:nonzero;stroke:none"
         id="path384" />
      <path
         d="m 6946.45,8105 c -41.18,239.3 -557.46,472.4 -806.58,202.9 -248.78,-269.5 -103.52,-475.5 124.81,-350 228.54,125.7 499.3,34.3 597.13,58.1 97.5,24 34.42,72.1 -97.91,126.5 -216.27,89.1 -572.32,-127 -627.45,-91.2 -55.42,35.5 109.06,268.4 335.17,267.5 162.82,-0.7 333.94,-130.2 356.47,-261.5"
         style="fill:#dddb19;fill-opacity:1;fill-rule:nonzero;stroke:none"
         id="path386" />
      <path
         d="m 6940.25,8006.7 c -25.54,-109.4 69.82,-491.2 658.38,-710.1 82.66,-28.2 40.23,-149.2 -71.68,-124.9 -111.78,24.1 -828.53,453 -686.04,841.1 36.79,64.2 99.34,-6.1 99.34,-6.1"
         style="fill:#dddb19;fill-opacity:1;fill-rule:nonzero;stroke:none"
         id="path388" />
      <path
         d="m 6882.52,8176.3 c 94.58,9 284.29,-183.8 93.23,-211.4 -191.03,-27.8 -262.9,195.5 -93.23,211.4"
         style="fill:#dddb19;fill-opacity:1;fill-rule:nonzero;stroke:none"
         id="path390" />
      <path
         d="m 7302.42,7945.3 c 114.35,6.5 134.36,-148.3 -2.4,-172.2 -137.05,-24.4 -136.31,164.6 2.4,172.2"
         style="fill:#1d2437;fill-opacity:1;fill-rule:nonzero;stroke:none"
         id="path392" />
      <path
         d="m 7091.01,7409.4 c 114.3,6.5 134.37,-148.3 -2.42,-172.2 -137.02,-24.5 -136.3,164.6 2.42,172.2"
         style="fill:#1d2437;fill-opacity:1;fill-rule:nonzero;stroke:none"
         id="path394" />
      <path
         d="m 6629.88,7001.8 c 114.34,6.4 134.36,-148.4 -2.4,-172.3 -137.06,-24.4 -136.28,164.6 2.4,172.3"
         style="fill:#1d2437;fill-opacity:1;fill-rule:nonzero;stroke:none"
         id="path396" />
      <path
         d="m 6031.71,6766 c 114.35,6.4 134.36,-148.4 -2.43,-172.3 -137.02,-24.4 -136.28,164.6 2.43,172.3"
         style="fill:#1d2437;fill-opacity:1;fill-rule:nonzero;stroke:none"
         id="path398" />
      <path
         d="m 7267.04,7813 c -249.87,25 -719.26,-42.1 -878.03,-219.9 -71.39,200 370.51,428.1 932.98,334.6 58.94,-16 29.86,-117.5 -54.95,-114.7"
         style="fill:#dddb19;fill-opacity:1;fill-rule:nonzero;stroke:none"
         id="path400" />
      <path
         d="m 7000.88,7277.3 c -232.23,95.4 -701.14,165.5 -904.19,40.6 -11.23,211.9 477.51,304.1 989.68,53.4 51.9,-32 -4.97,-121 -85.49,-94"
         style="fill:#dddb19;fill-opacity:1;fill-rule:nonzero;stroke:none"
         id="path402" />
      <path
         d="m 6574.72,6888 c -204.43,145.7 -754.52,272.6 -980.64,197.3 37.28,208.8 643.55,235.5 1085.27,-125.3 43.26,-43 -32.37,-116.6 -104.63,-72"
         style="fill:#dddb19;fill-opacity:1;fill-rule:nonzero;stroke:none"
         id="path404" />
      <path
         d="m 6124.79,7362.6 c -260.21,125.7 -240.26,-464 -183.6,-667.2 33.75,-98.4 144.05,-76.7 148.66,0 -48.7,239.8 -26.28,571.9 34.94,667.2"
         style="fill:#dddb19;fill-opacity:1;fill-rule:nonzero;stroke:none"
         id="path406" />
      <path
         d="m 6435.72,7717.1 c -288.41,18.2 -32.29,-649.9 96.88,-816.7 68.45,-78.3 162.4,-16.6 137.67,56.1 -135.65,203.8 -255.34,649.4 -234.55,760.6"
         style="fill:#dddb19;fill-opacity:1;fill-rule:nonzero;stroke:none"
         id="path408" />
      <path
         d="m 6467.01,7994.6 c -259.98,-126.1 360.19,-604.5 554.7,-686.1 98.14,-34.5 149.51,65.5 92.22,116.5 -218.31,110.7 -610.2,462.6 -646.92,569.6"
         style="fill:#dddb19;fill-opacity:1;fill-rule:nonzero;stroke:none"
         id="path410" />
      <path
         d="m 7718.47,20873.4 c -44.04,-295.7 204.66,-385.3 517.54,-327.9 312.89,57.4 614.83,346.8 759.55,573.2 144.73,226.5 308.28,-10.7 232.79,-219.3 -75.49,-208.5 -559.91,-630.8 -1069.49,-705.9 -509.56,-75 -705.24,298.1 -675,453.4 30.22,155.3 166.16,277.1 234.61,226.5"
         style="fill:#485bb3;fill-opacity:1;fill-rule:nonzero;stroke:none"
         id="path412" />
      <path
         d="m 6861.06,20491.2 c -326.88,-80.2 -792.67,-179.3 -873.54,-269 -80.87,-89.6 -0.68,-796 117.28,-931.2 117.97,-135.1 446.2,558.5 756.26,681.2"
         style="fill:#485bb3;fill-opacity:1;fill-rule:nonzero;stroke:none"
         id="path414" />
      <path
         d="m 5772,20208.1 c -4.07,161.8 -327.5,25 -290.02,-453 37.75,-481.4 297.27,-1052.1 589.8,-943.6 -217.04,287.8 -295.08,1208 -299.78,1396.6"
         style="fill:#485bb3;fill-opacity:1;fill-rule:nonzero;stroke:none"
         id="path416" />
      <path
         d="m 12065.7,21516.2 c -453.7,-179.8 -836.8,-601.9 -830.5,-1314.4 6.3,-712.5 206.1,-848.1 184.9,-928.1 -21.3,-80.1 -439.9,274.7 -400.5,1083.8 48.2,990.3 706.3,1429.3 1046.1,1158.7"
         style="fill:#485bb3;fill-opacity:1;fill-rule:nonzero;stroke:none"
         id="path418" />
      <path
         d="m 7262.57,26390.3 c -190.98,-28.7 -789.73,82.2 -1793.4,-169.5 -284.03,-71.2 -209.17,927.7 833.82,1044.3 956.23,107 1150.56,-846.2 959.58,-874.8 z m 392.3,2242.3 c -2737.46,47 -3310.08,-2808.9 -3071.06,-3264.5 1719.69,1077.6 5418.19,509.9 6272.99,-685.6 228.2,1501.5 -464.5,3903 -3201.93,3950.1"
         style="fill:#b8891c;fill-opacity:1;fill-rule:nonzero;stroke:none"
         id="path420" />
      <path
         d="m 7881.46,28593.6 c 1427.93,-111.6 2057.82,-1560.8 2032.66,-2624.2 -490.77,295.5 -1975.42,459 -2491.32,471.6 3.14,802.1 -769.38,980 -1158.49,942.9 -389.11,-37 -1092.25,-474.3 -1036.79,-1142 -283.43,-39.9 -597.96,-272.5 -597.96,-272.5 165.18,1414.5 1170.47,2786.7 3251.9,2624.2"
         style="fill:#efa90f;fill-opacity:1;fill-rule:nonzero;stroke:none"
         id="path422" />
      <path
         d="m 7180.74,26385.2 c -547.47,121.9 -1406.21,177.1 -1625.39,22.8 -103.81,-73.1 25.65,-504.8 176.71,-483.2 579.17,103.6 1382.43,15 1382.43,15 94.37,-1.3 108.98,114.3 108.98,114.3"
         style="fill:#3847a4;fill-opacity:1;fill-rule:nonzero;stroke:none"
         id="path424" />
      <path
         d="m 5582.7,26419.9 c -104.83,-40.8 -13.75,-434.5 112.39,-414.6 126.14,20 -29.82,446.7 -112.39,414.6"
         style="fill:#485bb3;fill-opacity:1;fill-rule:nonzero;stroke:none"
         id="path426" />
      <path
         d="m 7154.6,26385 c -511.9,140.9 -1362.48,138 -1448.15,66.7 -85.67,-71.3 -43.99,-388.1 73.97,-388.1 117.96,0 873.19,23.5 1405.63,-37.8 645.67,-9.4 1938.5,-153.6 2858.55,-607.6 42.5,140.5 33,343.4 -165.13,466.1 -198.17,122.6 -1319.43,500.1 -2724.87,500.7"
         style="fill:#efa90f;fill-opacity:1;fill-rule:nonzero;stroke:none"
         id="path428" />
      <path
         d="m 5469.17,26176.8 c -346.74,-75.5 -805.77,-283.2 -869.5,-368 -63.74,-84.9 -6.27,-330.3 29.89,-320.9 248.49,193.5 859.5,377.5 981,405.8 -208.79,61.3 -141.39,283.1 -141.39,283.1"
         style="fill:#efa90f;fill-opacity:1;fill-rule:nonzero;stroke:none"
         id="path430" />
      <path
         d="m 7632.85,28518 c -1414.8,187.8 -2943.54,-1134.1 -2434.65,-1765.6 705.16,1030.4 2265.48,839.9 2337.74,-188.8 1267.75,-56.6 1644,1749.1 96.91,1954.4"
         style="fill:#fbc130;fill-opacity:1;fill-rule:nonzero;stroke:none"
         id="path432" />
      <path
         d="m 12044,21173.8 c -245.1,-96.4 -676.1,-604.6 -406.1,-1352 68.5,-105.6 289.3,-148.8 327.1,-85.9 37.7,62.9 -22,684.5 191.8,936.2 132.1,88.1 431,-44.1 431,-44.1 -182.4,-138.4 -320.5,-732.3 -185.4,-1026.7 84.7,-105.7 433.8,-136 429.1,-29.6 -67.5,345.4 198.8,1115.7 502.9,1230.7 -67.2,190.5 -984.2,491.9 -1290.4,371.4"
         style="fill:#302a2d;fill-opacity:1;fill-rule:nonzero;stroke:none"
         id="path434" />
      <path
         d="m 9379.32,8328.9 c -73.19,43.2 -56.64,-113.3 50.34,-188.8 106.95,-75.4 318.15,-220.2 841.64,-103.8 523.5,116.4 721.7,390.1 611.6,566.2 -160.4,-176.1 -874.4,-644.8 -1503.58,-273.6"
         style="fill:#302a2d;fill-opacity:1;fill-rule:nonzero;stroke:none"
         id="path436" />
      <path
         d="m 6262.43,9005.5 c -92,-54.5 -72.33,-206.3 297.88,-215.8 370.2,-9.4 1072.58,188.8 1009.22,495.5 -350.45,-221.8 -918.28,-380.2 -1307.1,-279.7"
         style="fill:#302a2d;fill-opacity:1;fill-rule:nonzero;stroke:none"
         id="path438" />
      <path
         d="m 10288.3,4412.7 c 349.2,-33.1 769.1,245.3 939,703 66,-240.6 -150.8,-735.3 -566,-957.1 -415.2,-221.8 -1317.73,-283.8 -1592.05,226.6 -34.39,508.1 1110.55,362.5 1219.05,27.5"
         style="fill:#f8f33c;fill-opacity:1;fill-rule:nonzero;stroke:none"
         id="path440" />
      <path
         d="m 6303.93,5849.8 c -504.23,-182.1 -881.69,-250 -1089.3,-96.5 -207.61,153.5 -336.95,344.7 -464.16,280.6 -127.21,-64.2 155.88,-466.8 344.61,-561.2 188.74,-94.3 1126.8,-13.2 1208.85,377.1"
         style="fill:#f8f33c;fill-opacity:1;fill-rule:nonzero;stroke:none"
         id="path442" />
      <path
         d="m 5155.32,10569.6 c 174.42,-403.8 976.81,-1361.3 1097.34,-1473.2 333.16,-120.6 747.08,-10.3 823.36,76.6 -68.43,464.5 -194.3,1427.1 -445.04,1691.2 C 6372.16,10600 5578.52,10489 5155.32,10569.6"
         style="fill:#fbc593;fill-opacity:1;fill-rule:nonzero;stroke:none"
         id="path444" />
      <path
         d="m 8909.49,9747.4 c 90.02,-383.8 532.76,-1371.7 532.76,-1371.7 352.32,-170.1 832.05,-165.1 1014.75,52.8 41.2,330.4 -174.4,1404 -174.4,1404 -288.79,-199.8 -803.01,-289.4 -1373.11,-85.1"
         style="fill:#fbc593;fill-opacity:1;fill-rule:nonzero;stroke:none"
         id="path446" />
      <path
         d="m 7870.72,19196.8 c -113.5,168.6 -412.75,347.8 -740.12,202.8 -327.37,-145 -221.1,-1464.2 211.7,-1715.8 432.8,-251.7 734.11,181.4 684.13,398.9 -49.98,217.6 -301.9,439.3 -352.11,341 -50.2,-98.2 -40.51,-319.5 -240.38,-341 -199.87,-21.5 -444.22,843.5 -127.03,1002.4 317.21,158.9 254.02,-169.4 367.41,-187.7 113.38,-18.3 290.87,159.1 196.4,299.4"
         style="fill:#d0d2ee;fill-opacity:1;fill-rule:nonzero;stroke:none"
         id="path448" />
      <path
         d="m 8185.69,18447.5 c -147.61,182.4 -17.36,491.6 147.34,484.4 144.41,-6.2 233.09,-220.2 164.08,-443.3 -49.02,-158.5 -238.45,-131.2 -311.42,-41.1 z m 43.06,733.9 c -247.93,55.5 -419.11,-327.5 -320.14,-707.7 72.77,-279.6 228.11,-521.7 462.19,-432.5 340.01,129.5 448.23,1008.1 -142.05,1140.2"
         style="fill:#d0d2ee;fill-opacity:1;fill-rule:nonzero;stroke:none"
         id="path450" />
      <path
         d="m 8813.13,18155.6 c -56.85,96.7 -64.68,553.5 25.18,578.8 178.77,50.3 345.98,-114 281.77,-435.1 -25.62,-128.1 -212.32,-304.9 -306.95,-143.7 z m -69.2,-295.6 c 342.35,-182.5 642.68,136 669.19,651.3 22.78,442 -386.51,815.8 -644.04,691.1 -240.09,-116.4 -192.12,-356.5 -170.85,-597.8 33.06,-375 -74.36,-627.3 145.7,-744.6"
         style="fill:#d0d2ee;fill-opacity:1;fill-rule:nonzero;stroke:none"
         id="path452" />
      <path
         d="m 9118.02,19519.9 c -10.25,-128 244.94,-244.6 337.52,-811 60.86,-372.3 -74.8,-593.1 0,-670.8 74.84,-77.6 481.45,-14 597.96,137.9 116.4,151.9 125.9,602.5 29.3,635.7 -96.55,33.2 -86.36,-191.4 -132.24,-286.6 -45.96,-95.1 -258.89,-222.9 -295.3,-118.2 -36.39,104.7 95.03,918.9 -38.71,1079.9 -133.81,161 -492.71,105.7 -498.53,33.1"
         style="fill:#d0d2ee;fill-opacity:1;fill-rule:nonzero;stroke:none"
         id="path454" />
      <path
         d="m 8099.23,17070.4 c 80.05,33.6 415.1,42.5 446.77,-32.7 31.66,-75.2 88.17,-260.2 6.45,-340.2 -81.66,-79.9 -375.95,-123.1 -433.07,13.9 -57.17,136.9 -72.2,337.2 -20.15,359"
         style="fill:#d0d2ee;fill-opacity:1;fill-rule:nonzero;stroke:none"
         id="path456" />
      <path
         d="m 8733,17093.6 c -20.57,-65 9.29,-324.6 79.98,-378 70.7,-53.3 446.52,76.2 465.47,190.1 18.98,113.8 18.68,334.7 -100.69,335.2 -119.46,0.6 -418.71,-64.7 -444.76,-147.3"
         style="fill:#d0d2ee;fill-opacity:1;fill-rule:nonzero;stroke:none"
         id="path458" />
      <path
         d="m 7425.53,17473.5 c 308.1,-574.3 1914.33,-388.9 2354.94,404.3 213.28,-17.2 288.13,130.4 94.31,197.1 -193.87,66.6 -248.79,-73 -228.41,-173.9 20.47,-101 -329.18,-513.5 -1134.51,-630.9 -805.36,-117.4 -1033.51,170.5 -1001.69,257.3 31.78,86.8 19.64,344.6 -210,152.8 -229.65,-191.8 40.77,-260.6 125.36,-206.7"
         style="fill:#d0d2ee;fill-opacity:1;fill-rule:nonzero;stroke:none"
         id="path460" />
      <path
         d="m 5769.82,26445.7 c -103.18,-47.1 -47.2,-240.6 47.18,-292.5 94.35,-51.9 830.42,61.3 830.42,169.9 0,108.5 -712.48,198.1 -877.6,122.6"
         style="fill:#fbc130;fill-opacity:1;fill-rule:nonzero;stroke:none"
         id="path462" />
    </g>
  </g>
</svg>
