<?xml version="1.0" encoding="UTF-8"?>
<svg xmlns="http://www.w3.org/2000/svg" xmlns:xlink="http://www.w3.org/1999/xlink" viewBox="0 0 330.04 364.15">
  <defs>
    <style>
      .class-1 {
        fill: #e39e76;
      }

      .class-2 {
        fill: url(#linear-gradient-2);
      }

      .class-3 {
        fill: #fff;
      }

      .class-4 {
        fill: url(#linear-gradient-17);
      }

      .class-5 {
        stroke-width: .64px;
      }

      .class-5, .class-6, .class-7, .class-8 {
        fill: none;
        stroke: #5ebbd8;
        stroke-linecap: round;
        stroke-linejoin: round;
      }

      .class-9 {
        fill: #9189bd;
      }

      .class-9, .class-10, .class-11, .class-12 {
        mix-blend-mode: multiply;
      }

      .class-13 {
        fill: url(#linear-gradient-15);
      }

      .class-6 {
        stroke-width: 4.48px;
      }

      .class-14 {
        fill: #594e83;
      }

      .class-15 {
        fill: url(#linear-gradient-18);
      }

      .class-16 {
        fill: url(#linear-gradient-14);
      }

      .class-17 {
        fill: url(#linear-gradient-20);
      }

      .class-18 {
        fill: url(#linear-gradient-6);
      }

      .class-10, .class-19 {
        fill: #191454;
      }

      .class-20 {
        isolation: isolate;
      }

      .class-21 {
        fill: #f5bb95;
      }

      .class-7 {
        stroke-width: 3.2px;
      }

      .class-22 {
        fill: url(#linear-gradient-11);
      }

      .class-23 {
        fill: url(#linear-gradient-10);
      }

      .class-24 {
        fill: #1a1556;
      }

      .class-25 {
        fill: #b2afd4;
      }

      .class-26 {
        fill: url(#linear-gradient-16);
      }

      .class-27 {
        fill: #09003c;
      }

      .class-28 {
        mix-blend-mode: screen;
      }

      .class-29 {
        fill: url(#linear-gradient-21);
      }

      .class-30 {
        fill: #928cbe;
      }

      .class-31 {
        fill: url(#linear-gradient-5);
      }

      .class-32 {
        fill: url(#linear-gradient-7);
      }

      .class-8 {
        stroke-width: 1.92px;
      }

      .class-33 {
        fill: url(#linear-gradient-9);
      }

      .class-34 {
        fill: url(#linear-gradient-22);
      }

      .class-35 {
        fill: url(#linear-gradient-3);
      }

      .class-36 {
        fill: url(#linear-gradient);
      }

      .class-37 {
        fill: #25216f;
      }

      .class-11 {
        fill: #3a3469;
        opacity: .8;
      }

      .class-38 {
        fill: url(#linear-gradient-23);
      }

      .class-39 {
        fill: url(#linear-gradient-19);
      }

      .class-40 {
        fill: url(#linear-gradient-4);
      }

      .class-41 {
        fill: url(#linear-gradient-8);
      }

      .class-42 {
        fill: url(#linear-gradient-12);
      }

      .class-43 {
        fill: url(#linear-gradient-13);
      }
    </style>
    <linearGradient id="linear-gradient" x1="102.25" y1="284.24" x2="139.36" y2="264.43" gradientUnits="userSpaceOnUse">
      <stop offset="0" stop-color="#30338c"/>
      <stop offset=".84" stop-color="#6d69aa"/>
      <stop offset="1" stop-color="#7a75b1"/>
    </linearGradient>
    <linearGradient id="linear-gradient-2" x1="218.21" y1="303.2" x2="218.21" y2="244.35" gradientUnits="userSpaceOnUse">
      <stop offset="0" stop-color="#9186bb"/>
      <stop offset="1" stop-color="#c7c4e1"/>
    </linearGradient>
    <linearGradient id="linear-gradient-3" x1="86.52" y1="230.87" x2="273.29" y2="226.48" gradientUnits="userSpaceOnUse">
      <stop offset="0" stop-color="#786fad"/>
      <stop offset="1" stop-color="#b2b3d7"/>
    </linearGradient>
    <linearGradient id="linear-gradient-4" x1="180.54" y1="156.55" x2="329.77" y2="49.18" gradientUnits="userSpaceOnUse">
      <stop offset="0" stop-color="#e195bf"/>
      <stop offset=".05" stop-color="#d58db5"/>
      <stop offset=".52" stop-color="#634254"/>
      <stop offset=".85" stop-color="#1c1217"/>
      <stop offset="1" stop-color="#000"/>
    </linearGradient>
    <linearGradient id="linear-gradient-5" x1="171.03" y1="143.34" x2="320.27" y2="35.97" xlink:href="#linear-gradient-4"/>
    <linearGradient id="linear-gradient-6" x1="156.46" y1="123.08" x2="305.69" y2="15.71" xlink:href="#linear-gradient-4"/>
    <linearGradient id="linear-gradient-7" x1="150.22" y1="114.41" x2="299.45" y2="7.04" xlink:href="#linear-gradient-4"/>
    <linearGradient id="linear-gradient-8" x1="143.11" y1="104.53" x2="292.35" y2="-2.84" xlink:href="#linear-gradient-4"/>
    <linearGradient id="linear-gradient-9" x1="164.47" y1="134.25" x2="313.72" y2="26.87" xlink:href="#linear-gradient-4"/>
    <linearGradient id="linear-gradient-10" x1="137.41" y1="96.61" x2="286.65" y2="-10.76" xlink:href="#linear-gradient-4"/>
    <linearGradient id="linear-gradient-11" x1="163.27" y1="132.55" x2="312.51" y2="25.18" xlink:href="#linear-gradient-4"/>
    <linearGradient id="linear-gradient-12" x1="171.52" y1="144.01" x2="320.75" y2="36.64" xlink:href="#linear-gradient-4"/>
    <linearGradient id="linear-gradient-13" x1="12.88" y1="248.84" x2="178.48" y2="129.69" xlink:href="#linear-gradient-4"/>
    <linearGradient id="linear-gradient-14" x1="2.33" y1="234.18" x2="167.94" y2="115.04" xlink:href="#linear-gradient-4"/>
    <linearGradient id="linear-gradient-15" x1="-13.85" y1="211.71" x2="151.76" y2="92.55" xlink:href="#linear-gradient-4"/>
    <linearGradient id="linear-gradient-16" x1="-20.77" y1="202.08" x2="144.84" y2="82.94" xlink:href="#linear-gradient-4"/>
    <linearGradient id="linear-gradient-17" x1="-28.65" y1="191.12" x2="136.95" y2="71.97" xlink:href="#linear-gradient-4"/>
    <linearGradient id="linear-gradient-18" x1="-4.94" y1="224.09" x2="160.67" y2="104.93" xlink:href="#linear-gradient-4"/>
    <linearGradient id="linear-gradient-19" x1="-34.98" y1="182.33" x2="130.63" y2="63.18" xlink:href="#linear-gradient-4"/>
    <linearGradient id="linear-gradient-20" x1="-6.28" y1="222.22" x2="159.33" y2="103.07" xlink:href="#linear-gradient-4"/>
    <linearGradient id="linear-gradient-21" x1="2.87" y1="234.94" x2="168.48" y2="115.78" xlink:href="#linear-gradient-4"/>
    <linearGradient id="linear-gradient-22" x1="454.62" y1="233.52" x2="525.04" y2="100.34" gradientTransform="translate(-334.95)" xlink:href="#linear-gradient"/>
    <linearGradient id="linear-gradient-23" x1="555.1" y1="213.71" x2="487.23" y2="166.26" gradientTransform="translate(-334.95)" gradientUnits="userSpaceOnUse">
      <stop offset="0" stop-color="#c7c4e1"/>
      <stop offset="1" stop-color="#7768a8"/>
    </linearGradient>
  </defs>
  <g class="class-20">
    <g id="Capa_1" data-name="Capa 1">
      <g>
        <g>
          <g>
            <polygon class="class-5" points="207.83 227.43 85.16 313.52 156.45 363.83 156.45 363.83 156.45 363.83 156.45 363.83 279.55 277.9 207.83 227.43"/>
            <polygon class="class-7" points="207.83 200.53 85.16 286.61 156.45 336.92 156.45 336.92 156.45 336.92 156.45 336.92 279.55 250.99 207.83 200.53"/>
            <polygon class="class-8" points="207.83 213.98 85.16 300.06 156.45 350.37 156.45 350.38 156.45 350.38 156.45 350.37 279.55 264.45 207.83 213.98"/>
            <polygon class="class-6" points="207.83 187.08 85.16 273.16 156.45 323.47 156.45 323.47 156.45 323.47 156.45 323.47 279.55 234.29 207.83 187.08"/>
          </g>
          <g>
            <polygon class="class-36" points="156.88 302.02 85.16 251.55 85.16 246.43 156.88 296.89 156.88 302.02"/>
            <polygon class="class-2" points="156.88 302.02 279.55 215.98 279.55 210.81 156.88 296.85 156.88 302.02"/>
            <polygon class="class-35" points="207.83 160.35 207.83 160.35 207.83 160.35 207.83 160.35 85.16 246.47 156.88 296.89 156.88 296.89 156.88 296.89 156.88 296.89 279.55 210.85 207.83 160.35"/>
            <polygon class="class-11" points="208.65 165.16 208.65 165.16 208.65 165.16 208.65 165.16 92.01 247.04 156.05 292.07 156.05 292.07 156.05 292.07 156.05 292.07 272.69 210.26 208.65 165.16"/>
          </g>
        </g>
        <g>
          <g class="class-28">
            <path class="class-40" d="m215.28,132.34c-.55,0-1.09-.26-1.43-.74-.55-.79-.36-1.88.43-2.43l106.25-74.53c.79-.55,1.88-.36,2.43.43.55.79.36,1.88-.43,2.43l-106.24,74.53c-.31.22-.66.32-1,.32Z"/>
            <path class="class-31" d="m173.47,142.96c-.55,0-1.09-.26-1.43-.74-.55-.79-.36-1.88.42-2.43l41.82-29.33c.79-.55,1.87-.36,2.43.42.56.79.37,1.88-.42,2.43l-41.81,29.34c-.31.21-.65.31-1,.31Z"/>
            <path class="class-18" d="m231.66,70.15c-.55,0-1.09-.26-1.43-.75-.55-.79-.36-1.88.42-2.43l63.45-44.51c.79-.55,1.88-.36,2.43.42.56.79.36,1.88-.42,2.43l-63.46,44.51c-.3.21-.65.31-1,.31Z"/>
            <path class="class-32" d="m170.68,101.15c-.55,0-1.09-.26-1.43-.74-.56-.79-.36-1.88.42-2.43l31.69-22.23c.79-.55,1.88-.36,2.43.43.55.79.36,1.88-.43,2.43l-31.69,22.23c-.31.22-.66.32-1,.32Z"/>
            <path class="class-41" d="m179.62,79.45c-.55,0-1.09-.26-1.43-.74-.55-.79-.36-1.88.43-2.43l61.71-43.28c.79-.55,1.87-.36,2.43.42.55.79.36,1.88-.42,2.43l-61.71,43.28c-.3.22-.65.32-1,.32Z"/>
            <path class="class-33" d="m276.73,54.9c-.55,0-1.09-.26-1.43-.74-.55-.79-.36-1.88.43-2.43l36.77-25.8c.79-.55,1.88-.36,2.43.43.55.79.36,1.88-.43,2.43l-36.77,25.79c-.3.21-.65.32-1,.32Z"/>
            <path class="class-23" d="m215.28,42c-.55,0-1.09-.26-1.43-.74-.55-.79-.36-1.88.43-2.43l36.77-25.79c.79-.56,1.88-.36,2.43.42.55.79.36,1.88-.43,2.43l-36.77,25.79c-.31.21-.66.32-1,.32Z"/>
            <path class="class-22" d="m185.32,117.79c-.55,0-1.09-.26-1.43-.74-.55-.79-.36-1.88.42-2.43l71.95-50.46c.78-.56,1.87-.37,2.43.42s.36,1.88-.43,2.43l-71.94,50.47c-.31.21-.65.31-1,.31Z"/>
            <path class="class-42" d="m232.77,100.83c-.55,0-1.09-.26-1.43-.74-.56-.79-.36-1.88.42-2.43l95.53-67.01c.79-.55,1.88-.36,2.43.43.55.79.36,1.87-.42,2.43l-95.53,67.01c-.3.21-.66.31-1,.31Z"/>
          </g>
          <g class="class-28">
            <path class="class-43" d="m51.43,221.98c-.61,0-1.21-.28-1.59-.82-.61-.87-.4-2.08.47-2.7l117.9-82.71c.88-.61,2.08-.4,2.7.47.61.87.4,2.08-.48,2.7l-117.9,82.71c-.34.23-.73.35-1.11.35Z"/>
            <path class="class-16" d="m5.03,233.76c-.61,0-1.21-.29-1.59-.83-.62-.88-.41-2.08.47-2.69l46.4-32.55c.88-.61,2.08-.41,2.7.47.61.87.4,2.08-.47,2.69L6.14,233.41c-.34.24-.73.35-1.11.35Z"/>
            <path class="class-13" d="m69.6,152.97c-.61,0-1.21-.29-1.59-.82-.61-.88-.4-2.08.48-2.7l70.41-49.39c.88-.62,2.08-.4,2.7.47.62.88.4,2.08-.47,2.7l-70.41,49.4c-.34.24-.73.35-1.11.35Z"/>
            <path class="class-26" d="m1.94,187.37c-.61,0-1.21-.29-1.59-.82-.62-.88-.4-2.09.47-2.7l35.17-24.67c.88-.61,2.08-.4,2.7.47.62.87.4,2.08-.47,2.7L3.05,187.02c-.34.24-.73.35-1.11.35Z"/>
            <path class="class-4" d="m11.86,163.29c-.61,0-1.21-.29-1.59-.83-.61-.87-.4-2.08.48-2.7l68.47-48.03c.88-.62,2.08-.4,2.7.47.62.87.4,2.08-.47,2.7L12.97,162.94c-.34.24-.72.35-1.11.35Z"/>
            <path class="class-15" d="m119.62,136.04c-.61,0-1.21-.29-1.59-.83-.61-.88-.4-2.08.48-2.7l40.8-28.63c.87-.61,2.08-.4,2.7.47.61.88.4,2.08-.47,2.7l-40.8,28.62c-.34.24-.72.35-1.11.35Z"/>
            <path class="class-39" d="m51.43,121.73c-.61,0-1.21-.29-1.59-.82-.61-.87-.4-2.08.47-2.7l40.8-28.62c.88-.61,2.08-.4,2.7.47.61.87.4,2.08-.48,2.7l-40.8,28.62c-.34.23-.73.35-1.11.35Z"/>
            <path class="class-17" d="m18.18,205.84c-.61,0-1.21-.29-1.59-.83-.61-.88-.4-2.08.47-2.7l79.84-56c.87-.62,2.08-.4,2.7.47.61.88.4,2.09-.47,2.7l-79.84,56c-.34.24-.73.35-1.11.35Z"/>
            <path class="class-29" d="m70.84,187.01c-.61,0-1.21-.29-1.59-.82-.61-.88-.4-2.08.47-2.7l106.01-74.36c.87-.61,2.08-.4,2.7.47.61.88.4,2.09-.47,2.7l-106.01,74.36c-.34.24-.72.35-1.11.35Z"/>
          </g>
        </g>
        <g>
          <g>
            <g>
              <path class="class-34" d="m135.83,226.29c0-27.55,22.33-76.79,51.37-97.17,15.27-10.71,28.52-11.67,37.67-5.5l-33.34-23.63c-.34-.26-.71-.51-1.06-.75h0c-9.14-6.05-22.33-5.05-37.51,5.6-29.03,20.37-51.37,69.61-51.37,97.17,0,14.11,5.42,26.08,14.46,31.97l32.91,23.33c.07.06.14.1.21.15-8.38-6.12-13.35-17.66-13.35-31.18Z"/>
              <path class="class-38" d="m238.02,155.82c0,34.58-22.52,77.59-51.55,97.95-29.03,20.37-50.64.72-50.64-27.48s22.33-76.79,51.37-97.17c29.03-20.36,50.83-5.51,50.83,26.69Z"/>
              <path class="class-3" d="m228.58,162.39c0,28.13-18.31,63.11-41.92,79.67-23.62,16.57-41.2.59-41.2-22.35s18.17-62.47,41.78-79.03c23.61-16.57,41.34-4.48,41.34,21.71Z"/>
            </g>
            <g class="class-12">
              <path class="class-14" d="m205.41,120.57l-34.51-24.2c-1.72.39-3.5.94-5.32,1.64l34.47,24.18c1.84-.69,3.62-1.23,5.36-1.61Z"/>
              <path class="class-14" d="m147.63,108.97l34.41,24.14c1.2-1,2.42-1.91,3.65-2.81l-34.41-24.14c-1.22.91-2.45,1.81-3.65,2.82Z"/>
              <path class="class-14" d="m134.11,123.04l34.37,24.11c.93-1.14,1.86-2.29,2.82-3.39l-34.38-24.11c-.95,1.1-1.88,2.24-2.81,3.39Z"/>
              <path class="class-14" d="m123.04,138.83l34.34,24.09c.77-1.26,1.56-2.48,2.37-3.72l-34.36-24.09c-.79,1.23-1.59,2.46-2.35,3.72Z"/>
              <path class="class-14" d="m113.9,155.98l34.32,24.08c.63-1.34,1.26-2.69,1.92-4.03l-34.32-24.08c-.66,1.34-1.29,2.68-1.92,4.03Z"/>
              <path class="class-14" d="m106.68,174.47l34.3,24.06c.46-1.44.94-2.89,1.46-4.35l-34.31-24.07c-.52,1.47-.99,2.91-1.45,4.36Z"/>
              <path class="class-14" d="m102.09,194.81l34.26,24.03c.18-1.59.41-3.2.71-4.88l-34.28-24.05c-.29,1.68-.51,3.29-.69,4.89Z"/>
              <path class="class-14" d="m105.24,220.58l34.05,23.89c-.91-2.15-1.61-4.47-2.17-6.89l-34.17-23.96c.59,2.45,1.33,4.8,2.28,6.97Z"/>
            </g>
          </g>
          <path class="class-9" d="m210.82,180.97c4.66-4.29,6.62-11.25,4.68-17.28-1.56-4.85-5.2-8.7-9.74-10.31-1.76-.62-3.55-.85-5.25-.7v-5.54l-6.4,4.35v3.86l-3.05,2.07v-3.85l-7.33,4.98v3.82l-21.4,14.45-.03,12.56s2.41-1.64,5.99-4.06v36.67l-5.99,4.08v12.79l5.99-4.09v.06l5.82-4.04,9.62-6.58v4.81l7.33-5.09v-4.73l3.05-2.09v4.7l6.4-4.44v-4.63l8.73-5.96.06-.05c5.74-4.08,8.34-11.87,6.2-18.51-.92-2.85-2.56-5.36-4.68-7.27Zm-12.76-15.57c3.79-2.25,6.94-.05,7.45,1.51.75,2.31-.25,5.26-2.27,6.71l-16.91,11.55-6.5,4.39v-12.05c8.18-5.52,16.5-11.09,18.22-12.11Zm5.18,32.77l-23.4,15.95v-11.79l9.2-6.28c4.28-2.88,7.83-5.27,8.95-6.06,3.43-2.41,7.03-.09,7.53,1.47.75,2.31-.25,5.25-2.27,6.71Z"/>
        </g>
        <g>
          <g>
            <path class="class-27" d="m201.92,110.1l-19.95-13.7-21.81,11.18,29.06,19.88c4.49,3.36,11.37,1.35,14.74-3.14,3.36-4.49,2.45-10.85-2.04-14.21Z"/>
            <path class="class-27" d="m209.87,191.86c-1.27.7-4.3.92-6.68-.74-3.52-2.47-10.86-7.05-10.86-7.74v-8.32h11.62s.02,4.13.02,4.42c0,.45.06,2.13.97,2.98,1.3,1.22,1.99,2,4.09,4.04,2.21,2.14,2.41,4.49.85,5.36Z"/>
            <path class="class-27" d="m203.96,179.13l2.72-59.2c0-4.51-3.65-8.16-8.16-8.16s-8.17,3.66-8.17,8.16l-.86,7.61,2.83,54.18,11.63-2.6Z"/>
          </g>
          <g>
            <path class="class-27" d="m188.22,120.02l-19.95-13.7-20.96-.8s-.66,4.43-1.14,7.44c-.52,3.25,1.62,5.48,5.88,8.43,4.88,3.38,23.47,15.99,23.47,15.99,4.49,3.36,11.38,1.35,14.74-3.14,3.36-4.49,2.45-10.85-2.04-14.22Z"/>
            <path class="class-27" d="m196.17,201.77c-1.27.7-4.3.93-6.68-.74-3.52-2.47-10.86-7.05-10.86-7.74v-8.32h11.62s.01,4.13.01,4.42c0,.45.06,2.13.97,2.98,1.3,1.22,1.99,2,4.09,4.04,2.21,2.14,2.41,4.49.85,5.36Z"/>
            <path class="class-27" d="m190.26,189.05l2.72-59.2c0-4.51-3.65-8.16-8.16-8.16s-8.17,3.66-8.17,8.16l-.86,7.61,2.83,54.18,11.63-2.6Z"/>
          </g>
          <g>
            <g>
              <polygon class="class-30" points="153.64 31.2 171.66 30.81 168.48 60.31 153.64 31.2"/>
              <g>
                <path class="class-37" d="m171.66,30.81l-3.18,29.5v41.54s0,5.76,4.52,4.41c5.34-1.6,8.11-6.7,8.19-8.94.54-14.44.54-14.19.54-39.39l-.02-19.98-10.05-7.13Z"/>
                <path class="class-37" d="m168.48,60.31l-14.83-29.11c-6.11,4.3-13.93,9.45-13.93,9.45l5.8,25.56,3.1,20.71s-1.8,16.34-2.64,25.58c-.43,4.71,13.23,4.62,19.19-.58,2.64-2.3,3.32-6.85,3.32-10.76v-40.86Z"/>
              </g>
              <g>
                <path class="class-1" d="m168.44,10.55c-1.32-.68-3.56-1.06-5.19-1.06-5.05,0-8.55,4.69-8.55,9.73v6.7c0,3.22,7.03,8.56,11.35,9.43.86.17,1.38.03,1.67-.12.61-.33,1.14-1.21,1.25-1.42.45-.9.64-2.74.64-2.74l-1.16-20.52Z"/>
                <path class="class-21" d="m163.17,0c-6.2,0-10.49,5.75-10.49,11.95v4.37c0,6.93,10.04,16.08,16.24,16.08,3.1,0,3.68-3.73,4.94-7.56.91-2.78.53-10.77.53-14.18,0-6.2-5.02-10.66-11.22-10.66Z"/>
                <path class="class-21" d="m154.87,18.68c.86,1.72.75,3.52-.24,4.02-.99.5-2.49-.5-3.35-2.22-.86-1.72-.75-3.52.24-4.01.99-.5,2.49.5,3.36,2.22Z"/>
              </g>
              <path class="class-25" d="m154.7,25.92s.35,2.47,3.11,4.64c2.76,2.17,7.58,5.71,9.9,4.68l-5.03,4.21s-9.05-5.97-9.05-8.75-.09-3.8,1.06-4.78Z"/>
              <path class="class-25" d="m169.4,32.37s-.26,1.9-1.68,2.87l3.23,2.27.71-6.7s-.88,1.28-2.26,1.56Z"/>
            </g>
            <path class="class-27" d="m159.99,9.49l-5.74-3.79c-1,1.86-1.56,4.03-1.56,6.26v4.37s0,.09,0,.13c2.01.74,2.67,3.62,2.67,3.62l1.61-1.13.02-2.74c2.25-.29,4.15-4.26,4.86-5.95-1.16-.42-1.86-.76-1.86-.76Z"/>
            <path class="class-27" d="m174.47,11.31h0c0-.23,0-.45,0-.65,0-6.2-5.03-10.66-11.22-10.66-4.03,0-7.36,1.96-9.01,5.69l5.75,3.79s7.72,3.78,14.49,1.82Z"/>
            <g>
              <polygon class="class-19" points="168.84 38.99 168.84 36.02 167.72 35.23 164.04 38.31 166.46 40.65 168.84 38.99"/>
              <polygon class="class-19" points="166.46 40.65 164.96 53.43 168.48 60.31 169.6 50.18 168.84 38.99 166.46 40.65"/>
            </g>
            <polygon class="class-10" points="158.33 59.16 150.16 33.64 152.45 32 168.48 60.31 158.33 59.16"/>
            <polygon class="class-10" points="168.48 60.31 177.11 46.93 174.38 32.52 171.66 30.81 168.48 60.31"/>
            <polygon class="class-37" points="168.48 60.31 159.32 58.27 150.16 33.64 153.64 31.2 168.48 60.31"/>
            <path class="class-37" d="m168.48,60.31l7.51-13.73-1.6-14.06s-1.23-1.07-2.72-1.71l-3.18,29.5Z"/>
          </g>
          <g>
            <path class="class-24" d="m194.06,73.87c-1.78-8.72-2.82-17.38-4.57-24.22-2.56-9.99-5.2-10.21-7.83-11.71v44.48l5.56,1.67c5.63,1.58,8.3-3.05,6.84-10.22Z"/>
            <polygon class="class-24" points="186.87 83.94 161.01 76.6 163.01 70.04 189.35 75.28 186.87 83.94"/>
            <path class="class-21" d="m173.82,79.72s5.44-6.23,6.62-4.72c0,0-.27-2.15-1.35-3.57-1.35-1.77-3.31-1.76-5.35-.35-2.04,1.41-3.35,2.31-3.35,2.31l3.44,6.33Z"/>
            <path class="class-37" d="m174.47,81.44s-11.33,5.34-19.81,9.09c-2.34,1.03-4.91-.49-6.2-2.68-2.47-4.21-8.59-14.69-11.27-24.56-2.78-10.22-2.03-19.79,1.24-22.21,7.65-5.66,10.75,4.31,13.03,12.59,1.67,6.05,2.82,20.13,4.04,23.32.45,1.18,1.06,1.5,2.07,1.13,6.18-2.33,13.38-6.37,13.38-6.37,0,0,4.4,4.33,3.52,9.68Z"/>
            <path class="class-21" d="m162.81,70.68c-.65-.18-6.24-1.73-12.1-1.63-.54,0-.97.45-.96,1,0,.54.43.96.99.97.55,0,2.87.41,3.4.43-.26.1-.52.19-.79.31-.49.23-.71.81-.49,1.3.23.5.81.71,1.3.49.09-.04.19-.07.28-.11-.17.11-.34.21-.51.34-.43.33-.51.95-.18,1.38.19.25.48.39.78.39.21,0,.42-.07.6-.2.14-.11.29-.2.44-.29-.16.16-.32.31-.47.48-.35.42-.3,1.03.11,1.39.19.16.41.24.64.24.28,0,.55-.12.75-.35.37-.44.79-.78,1.24-1.06-.25.2-.5.42-.72.67-.37.4-.34,1.02.06,1.39.19.17.43.26.66.26.27,0,.53-.11.72-.32.68-.74,1.6-1.24,2.57-1.57l1.67-5.5Z"/>
          </g>
        </g>
      </g>
    </g>
  </g>
</svg>