<svg id="eTftIQUCAZH1" xmlns="http://www.w3.org/2000/svg" xmlns:xlink="http://www.w3.org/1999/xlink" viewBox="0 0 330.04 364.15" shape-rendering="geometricPrecision" text-rendering="geometricPrecision"><defs><linearGradient id="eTftIQUCAZH12-fill" x1="102.25" y1="284.24" x2="139.36" y2="264.43" spreadMethod="pad" gradientUnits="userSpaceOnUse" gradientTransform="translate(0 0)"><stop id="eTftIQUCAZH12-fill-0" offset="0%" stop-color="#30338c"/><stop id="eTftIQUCAZH12-fill-1" offset="84%" stop-color="#6d69aa"/><stop id="eTftIQUCAZH12-fill-2" offset="100%" stop-color="#7a75b1"/></linearGradient><linearGradient id="eTftIQUCAZH13-fill" x1="218.21" y1="303.2" x2="218.21" y2="244.35" spreadMethod="pad" gradientUnits="userSpaceOnUse" gradientTransform="translate(0 0)"><stop id="eTftIQUCAZH13-fill-0" offset="0%" stop-color="#9186bb"/><stop id="eTftIQUCAZH13-fill-1" offset="100%" stop-color="#c7c4e1"/></linearGradient><linearGradient id="eTftIQUCAZH14-fill" x1="86.52" y1="230.87" x2="273.29" y2="226.48" spreadMethod="pad" gradientUnits="userSpaceOnUse" gradientTransform="translate(0 0)"><stop id="eTftIQUCAZH14-fill-0" offset="0%" stop-color="#786fad"/><stop id="eTftIQUCAZH14-fill-1" offset="100%" stop-color="#b2b3d7"/></linearGradient><linearGradient id="eTftIQUCAZH18-fill" x1="180.54" y1="156.55" x2="329.77" y2="49.18" spreadMethod="pad" gradientUnits="userSpaceOnUse" gradientTransform="translate(0 0)"><stop id="eTftIQUCAZH18-fill-0" offset="0%" stop-color="#e195bf"/><stop id="eTftIQUCAZH18-fill-1" offset="5%" stop-color="#d58db5"/><stop id="eTftIQUCAZH18-fill-2" offset="52%" stop-color="#634254"/><stop id="eTftIQUCAZH18-fill-3" offset="85%" stop-color="#1c1217"/><stop id="eTftIQUCAZH18-fill-4" offset="100%" stop-color="#000"/></linearGradient><linearGradient id="eTftIQUCAZH19-fill" x1="171.03" y1="143.34" x2="320.27" y2="35.97" spreadMethod="pad" gradientUnits="userSpaceOnUse" gradientTransform="translate(0 0)"><stop id="eTftIQUCAZH19-fill-0" offset="0%" stop-color="#e195bf"/><stop id="eTftIQUCAZH19-fill-1" offset="5%" stop-color="#d58db5"/><stop id="eTftIQUCAZH19-fill-2" offset="52%" stop-color="#634254"/><stop id="eTftIQUCAZH19-fill-3" offset="85%" stop-color="#1c1217"/><stop id="eTftIQUCAZH19-fill-4" offset="100%" stop-color="#000"/></linearGradient><linearGradient id="eTftIQUCAZH20-fill" x1="156.46" y1="123.08" x2="305.69" y2="15.71" spreadMethod="pad" gradientUnits="userSpaceOnUse" gradientTransform="translate(0 0)"><stop id="eTftIQUCAZH20-fill-0" offset="0%" stop-color="#e195bf"/><stop id="eTftIQUCAZH20-fill-1" offset="5%" stop-color="#d58db5"/><stop id="eTftIQUCAZH20-fill-2" offset="52%" stop-color="#634254"/><stop id="eTftIQUCAZH20-fill-3" offset="85%" stop-color="#1c1217"/><stop id="eTftIQUCAZH20-fill-4" offset="100%" stop-color="#000"/></linearGradient><linearGradient id="eTftIQUCAZH21-fill" x1="150.22" y1="114.41" x2="299.45" y2="7.04" spreadMethod="pad" gradientUnits="userSpaceOnUse" gradientTransform="translate(0 0)"><stop id="eTftIQUCAZH21-fill-0" offset="0%" stop-color="#e195bf"/><stop id="eTftIQUCAZH21-fill-1" offset="5%" stop-color="#d58db5"/><stop id="eTftIQUCAZH21-fill-2" offset="52%" stop-color="#634254"/><stop id="eTftIQUCAZH21-fill-3" offset="85%" stop-color="#1c1217"/><stop id="eTftIQUCAZH21-fill-4" offset="100%" stop-color="#000"/></linearGradient><linearGradient id="eTftIQUCAZH22-fill" x1="143.11" y1="104.53" x2="292.35" y2="-2.84" spreadMethod="pad" gradientUnits="userSpaceOnUse" gradientTransform="translate(0 0)"><stop id="eTftIQUCAZH22-fill-0" offset="0%" stop-color="#e195bf"/><stop id="eTftIQUCAZH22-fill-1" offset="5%" stop-color="#d58db5"/><stop id="eTftIQUCAZH22-fill-2" offset="52%" stop-color="#634254"/><stop id="eTftIQUCAZH22-fill-3" offset="85%" stop-color="#1c1217"/><stop id="eTftIQUCAZH22-fill-4" offset="100%" stop-color="#000"/></linearGradient><linearGradient id="eTftIQUCAZH23-fill" x1="164.47" y1="134.25" x2="313.72" y2="26.87" spreadMethod="pad" gradientUnits="userSpaceOnUse" gradientTransform="translate(0 0)"><stop id="eTftIQUCAZH23-fill-0" offset="0%" stop-color="#e195bf"/><stop id="eTftIQUCAZH23-fill-1" offset="5%" stop-color="#d58db5"/><stop id="eTftIQUCAZH23-fill-2" offset="52%" stop-color="#634254"/><stop id="eTftIQUCAZH23-fill-3" offset="85%" stop-color="#1c1217"/><stop id="eTftIQUCAZH23-fill-4" offset="100%" stop-color="#000"/></linearGradient><linearGradient id="eTftIQUCAZH24-fill" x1="137.41" y1="96.61" x2="286.65" y2="-10.76" spreadMethod="pad" gradientUnits="userSpaceOnUse" gradientTransform="translate(0 0)"><stop id="eTftIQUCAZH24-fill-0" offset="0%" stop-color="#e195bf"/><stop id="eTftIQUCAZH24-fill-1" offset="5%" stop-color="#d58db5"/><stop id="eTftIQUCAZH24-fill-2" offset="52%" stop-color="#634254"/><stop id="eTftIQUCAZH24-fill-3" offset="85%" stop-color="#1c1217"/><stop id="eTftIQUCAZH24-fill-4" offset="100%" stop-color="#000"/></linearGradient><linearGradient id="eTftIQUCAZH25-fill" x1="163.27" y1="132.55" x2="312.51" y2="25.18" spreadMethod="pad" gradientUnits="userSpaceOnUse" gradientTransform="translate(0 0)"><stop id="eTftIQUCAZH25-fill-0" offset="0%" stop-color="#e195bf"/><stop id="eTftIQUCAZH25-fill-1" offset="5%" stop-color="#d58db5"/><stop id="eTftIQUCAZH25-fill-2" offset="52%" stop-color="#634254"/><stop id="eTftIQUCAZH25-fill-3" offset="85%" stop-color="#1c1217"/><stop id="eTftIQUCAZH25-fill-4" offset="100%" stop-color="#000"/></linearGradient><linearGradient id="eTftIQUCAZH26-fill" x1="171.52" y1="144.01" x2="320.75" y2="36.64" spreadMethod="pad" gradientUnits="userSpaceOnUse" gradientTransform="translate(0 0)"><stop id="eTftIQUCAZH26-fill-0" offset="0%" stop-color="#e195bf"/><stop id="eTftIQUCAZH26-fill-1" offset="5%" stop-color="#d58db5"/><stop id="eTftIQUCAZH26-fill-2" offset="52%" stop-color="#634254"/><stop id="eTftIQUCAZH26-fill-3" offset="85%" stop-color="#1c1217"/><stop id="eTftIQUCAZH26-fill-4" offset="100%" stop-color="#000"/></linearGradient><linearGradient id="eTftIQUCAZH28-fill" x1="12.88" y1="248.84" x2="178.48" y2="129.69" spreadMethod="pad" gradientUnits="userSpaceOnUse" gradientTransform="translate(0 0)"><stop id="eTftIQUCAZH28-fill-0" offset="0%" stop-color="#e195bf"/><stop id="eTftIQUCAZH28-fill-1" offset="5%" stop-color="#d58db5"/><stop id="eTftIQUCAZH28-fill-2" offset="52%" stop-color="#634254"/><stop id="eTftIQUCAZH28-fill-3" offset="85%" stop-color="#1c1217"/><stop id="eTftIQUCAZH28-fill-4" offset="100%" stop-color="#000"/></linearGradient><linearGradient id="eTftIQUCAZH29-fill" x1="2.33" y1="234.18" x2="167.94" y2="115.04" spreadMethod="pad" gradientUnits="userSpaceOnUse" gradientTransform="translate(0 0)"><stop id="eTftIQUCAZH29-fill-0" offset="0%" stop-color="#e195bf"/><stop id="eTftIQUCAZH29-fill-1" offset="5%" stop-color="#d58db5"/><stop id="eTftIQUCAZH29-fill-2" offset="52%" stop-color="#634254"/><stop id="eTftIQUCAZH29-fill-3" offset="85%" stop-color="#1c1217"/><stop id="eTftIQUCAZH29-fill-4" offset="100%" stop-color="#000"/></linearGradient><linearGradient id="eTftIQUCAZH30-fill" x1="-13.85" y1="211.71" x2="151.76" y2="92.55" spreadMethod="pad" gradientUnits="userSpaceOnUse" gradientTransform="translate(0 0)"><stop id="eTftIQUCAZH30-fill-0" offset="0%" stop-color="#e195bf"/><stop id="eTftIQUCAZH30-fill-1" offset="5%" stop-color="#d58db5"/><stop id="eTftIQUCAZH30-fill-2" offset="52%" stop-color="#634254"/><stop id="eTftIQUCAZH30-fill-3" offset="85%" stop-color="#1c1217"/><stop id="eTftIQUCAZH30-fill-4" offset="100%" stop-color="#000"/></linearGradient><linearGradient id="eTftIQUCAZH31-fill" x1="-20.77" y1="202.08" x2="144.84" y2="82.94" spreadMethod="pad" gradientUnits="userSpaceOnUse" gradientTransform="translate(0 0)"><stop id="eTftIQUCAZH31-fill-0" offset="0%" stop-color="#e195bf"/><stop id="eTftIQUCAZH31-fill-1" offset="5%" stop-color="#d58db5"/><stop id="eTftIQUCAZH31-fill-2" offset="52%" stop-color="#634254"/><stop id="eTftIQUCAZH31-fill-3" offset="85%" stop-color="#1c1217"/><stop id="eTftIQUCAZH31-fill-4" offset="100%" stop-color="#000"/></linearGradient><linearGradient id="eTftIQUCAZH32-fill" x1="-28.65" y1="191.12" x2="136.95" y2="71.97" spreadMethod="pad" gradientUnits="userSpaceOnUse" gradientTransform="translate(0 0)"><stop id="eTftIQUCAZH32-fill-0" offset="0%" stop-color="#e195bf"/><stop id="eTftIQUCAZH32-fill-1" offset="5%" stop-color="#d58db5"/><stop id="eTftIQUCAZH32-fill-2" offset="52%" stop-color="#634254"/><stop id="eTftIQUCAZH32-fill-3" offset="85%" stop-color="#1c1217"/><stop id="eTftIQUCAZH32-fill-4" offset="100%" stop-color="#000"/></linearGradient><linearGradient id="eTftIQUCAZH33-fill" x1="-4.94" y1="224.09" x2="160.67" y2="104.93" spreadMethod="pad" gradientUnits="userSpaceOnUse" gradientTransform="translate(0 0)"><stop id="eTftIQUCAZH33-fill-0" offset="0%" stop-color="#e195bf"/><stop id="eTftIQUCAZH33-fill-1" offset="5%" stop-color="#d58db5"/><stop id="eTftIQUCAZH33-fill-2" offset="52%" stop-color="#634254"/><stop id="eTftIQUCAZH33-fill-3" offset="85%" stop-color="#1c1217"/><stop id="eTftIQUCAZH33-fill-4" offset="100%" stop-color="#000"/></linearGradient><linearGradient id="eTftIQUCAZH34-fill" x1="-34.98" y1="182.33" x2="130.63" y2="63.18" spreadMethod="pad" gradientUnits="userSpaceOnUse" gradientTransform="translate(0 0)"><stop id="eTftIQUCAZH34-fill-0" offset="0%" stop-color="#e195bf"/><stop id="eTftIQUCAZH34-fill-1" offset="5%" stop-color="#d58db5"/><stop id="eTftIQUCAZH34-fill-2" offset="52%" stop-color="#634254"/><stop id="eTftIQUCAZH34-fill-3" offset="85%" stop-color="#1c1217"/><stop id="eTftIQUCAZH34-fill-4" offset="100%" stop-color="#000"/></linearGradient><linearGradient id="eTftIQUCAZH35-fill" x1="-6.28" y1="222.22" x2="159.33" y2="103.07" spreadMethod="pad" gradientUnits="userSpaceOnUse" gradientTransform="translate(0 0)"><stop id="eTftIQUCAZH35-fill-0" offset="0%" stop-color="#e195bf"/><stop id="eTftIQUCAZH35-fill-1" offset="5%" stop-color="#d58db5"/><stop id="eTftIQUCAZH35-fill-2" offset="52%" stop-color="#634254"/><stop id="eTftIQUCAZH35-fill-3" offset="85%" stop-color="#1c1217"/><stop id="eTftIQUCAZH35-fill-4" offset="100%" stop-color="#000"/></linearGradient><linearGradient id="eTftIQUCAZH36-fill" x1="2.87" y1="234.94" x2="168.48" y2="115.78" spreadMethod="pad" gradientUnits="userSpaceOnUse" gradientTransform="translate(0 0)"><stop id="eTftIQUCAZH36-fill-0" offset="0%" stop-color="#e195bf"/><stop id="eTftIQUCAZH36-fill-1" offset="5%" stop-color="#d58db5"/><stop id="eTftIQUCAZH36-fill-2" offset="52%" stop-color="#634254"/><stop id="eTftIQUCAZH36-fill-3" offset="85%" stop-color="#1c1217"/><stop id="eTftIQUCAZH36-fill-4" offset="100%" stop-color="#000"/></linearGradient><linearGradient id="eTftIQUCAZH40-fill" x1="119.67" y1="233.52" x2="190.09" y2="100.34" spreadMethod="pad" gradientUnits="userSpaceOnUse" gradientTransform="translate(0 0)"><stop id="eTftIQUCAZH40-fill-0" offset="0%" stop-color="#30338c"/><stop id="eTftIQUCAZH40-fill-1" offset="84%" stop-color="#6d69aa"/><stop id="eTftIQUCAZH40-fill-2" offset="100%" stop-color="#7a75b1"/></linearGradient><linearGradient id="eTftIQUCAZH41-fill" x1="220.15" y1="213.71" x2="152.28" y2="166.26" spreadMethod="pad" gradientUnits="userSpaceOnUse" gradientTransform="translate(0 0)"><stop id="eTftIQUCAZH41-fill-0" offset="0%" stop-color="#c7c4e1"/><stop id="eTftIQUCAZH41-fill-1" offset="100%" stop-color="#7768a8"/></linearGradient></defs><g style="isolation:isolate"><g><g><g><g id="eTftIQUCAZH6"><polygon points="207.83,227.43 85.16,313.52 156.45,363.83 156.45,363.83 156.45,363.83 156.45,363.83 279.55,277.9 207.83,227.43" fill="none" stroke="#5ebbd8" stroke-width="0.64" stroke-linecap="round" stroke-linejoin="round"/><polygon points="207.83,200.53 85.16,286.61 156.45,336.92 156.45,336.92 156.45,336.92 156.45,336.92 279.55,250.99 207.83,200.53" fill="none" stroke="#5ebbd8" stroke-width="3.2" stroke-linecap="round" stroke-linejoin="round"/><polygon points="207.83,213.98 85.16,300.06 156.45,350.37 156.45,350.38 156.45,350.38 156.45,350.37 279.55,264.45 207.83,213.98" fill="none" stroke="#5ebbd8" stroke-width="1.92" stroke-linecap="round" stroke-linejoin="round"/><polygon points="207.83,187.08 85.16,273.16 156.45,323.47 156.45,323.47 156.45,323.47 156.45,323.47 279.55,234.29 207.83,187.08" fill="none" stroke="#5ebbd8" stroke-width="4.48" stroke-linecap="round" stroke-linejoin="round"/></g><g><polygon points="156.88,302.02 85.16,251.55 85.16,246.43 156.88,296.89 156.88,302.02" fill="url(#eTftIQUCAZH12-fill)"/><polygon points="156.88,302.02 279.55,215.98 279.55,210.81 156.88,296.85 156.88,302.02" fill="url(#eTftIQUCAZH13-fill)"/><polygon points="207.83,160.35 207.83,160.35 207.83,160.35 207.83,160.35 85.16,246.47 156.88,296.89 156.88,296.89 156.88,296.89 156.88,296.89 279.55,210.85 207.83,160.35" fill="url(#eTftIQUCAZH14-fill)"/><polygon style="mix-blend-mode:multiply" points="208.65,165.16 208.65,165.16 208.65,165.16 208.65,165.16 92.01,247.04 156.05,292.07 156.05,292.07 156.05,292.07 156.05,292.07 272.69,210.26 208.65,165.16" opacity="0.8" fill="#3a3469"/></g></g><g id="eTftIQUCAZH16"><g style="mix-blend-mode:screen"><path d="M215.28,132.34c-.55,0-1.09-.26-1.43-.74-.55-.79-.36-1.88.43-2.43L320.53,54.64c.79-.55,1.88-.36,2.43.43s.36,1.88-.43,2.43L216.29,132.03c-.31.22-.66.32-1,.32Z" fill="url(#eTftIQUCAZH18-fill)"/><path d="M173.47,142.96c-.55,0-1.09-.26-1.43-.74-.55-.79-.36-1.88.42-2.43l41.82-29.33c.79-.55,1.87-.36,2.43.42.56.79.37,1.88-.42,2.43l-41.81,29.34c-.31.21-.65.31-1,.31Z" fill="url(#eTftIQUCAZH19-fill)"/><path d="M231.66,70.15c-.55,0-1.09-.26-1.43-.75-.55-.79-.36-1.88.42-2.43L294.1,22.46c.79-.55,1.88-.36,2.43.42.56.79.36,1.88-.42,2.43L232.65,69.82c-.3.21-.65.31-1,.31Z" fill="url(#eTftIQUCAZH20-fill)"/><path d="M170.68,101.15c-.55,0-1.09-.26-1.43-.74-.56-.79-.36-1.88.42-2.43l31.69-22.23c.79-.55,1.88-.36,2.43.43s.36,1.88-.43,2.43l-31.69,22.23c-.31.22-.66.32-1,.32Z" fill="url(#eTftIQUCAZH21-fill)"/><path d="M179.62,79.45c-.55,0-1.09-.26-1.43-.74-.55-.79-.36-1.88.43-2.43L240.33,33c.79-.55,1.87-.36,2.43.42.55.79.36,1.88-.42,2.43L180.63,79.13c-.3.22-.65.32-1,.32Z" fill="url(#eTftIQUCAZH22-fill)"/><path d="M276.73,54.9c-.55,0-1.09-.26-1.43-.74-.55-.79-.36-1.88.43-2.43l36.77-25.8c.79-.55,1.88-.36,2.43.43s.36,1.88-.43,2.43L277.73,54.58c-.3.21-.65.32-1,.32Z" fill="url(#eTftIQUCAZH23-fill)"/><path d="M215.28,42c-.55,0-1.09-.26-1.43-.74-.55-.79-.36-1.88.43-2.43l36.77-25.79c.79-.56,1.88-.36,2.43.42.55.79.36,1.88-.43,2.43L216.28,41.68c-.31.21-.66.32-1,.32Z" fill="url(#eTftIQUCAZH24-fill)"/><path d="M185.32,117.79c-.55,0-1.09-.26-1.43-.74-.55-.79-.36-1.88.42-2.43l71.95-50.46c.78-.56,1.87-.37,2.43.42s.36,1.88-.43,2.43l-71.94,50.47c-.31.21-.65.31-1,.31Z" fill="url(#eTftIQUCAZH25-fill)"/><path d="M232.77,100.83c-.55,0-1.09-.26-1.43-.74-.56-.79-.36-1.88.42-2.43l95.53-67.01c.79-.55,1.88-.36,2.43.43s.36,1.87-.42,2.43l-95.53,67.01c-.3.21-.66.31-1,.31Z" fill="url(#eTftIQUCAZH26-fill)"/></g><g style="mix-blend-mode:screen"><path d="M51.43,221.98c-.61,0-1.21-.28-1.59-.82-.61-.87-.4-2.08.47-2.7l117.9-82.71c.88-.61,2.08-.4,2.7.47.61.87.4,2.08-.48,2.7L52.53,221.63c-.34.23-.73.35-1.11.35Z" fill="url(#eTftIQUCAZH28-fill)"/><path d="M5.03,233.76c-.61,0-1.21-.29-1.59-.83-.62-.88-.41-2.08.47-2.69l46.4-32.55c.88-.61,2.08-.41,2.7.47.61.87.4,2.08-.47,2.69L6.14,233.41c-.34.24-.73.35-1.11.35Z" fill="url(#eTftIQUCAZH29-fill)"/><path d="M69.6,152.97c-.61,0-1.21-.29-1.59-.82-.61-.88-.4-2.08.48-2.7l70.41-49.39c.88-.62,2.08-.4,2.7.47.62.88.4,2.08-.47,2.7l-70.41,49.4c-.34.24-.73.35-1.11.35Z" fill="url(#eTftIQUCAZH30-fill)"/><path d="M1.94,187.37c-.61,0-1.21-.29-1.59-.82-.62-.88-.4-2.09.47-2.7l35.17-24.67c.88-.61,2.08-.4,2.7.47s.4,2.08-.47,2.7L3.05,187.02c-.34.24-.73.35-1.11.35Z" fill="url(#eTftIQUCAZH31-fill)"/><path d="M11.86,163.29c-.61,0-1.21-.29-1.59-.83-.61-.87-.4-2.08.48-2.7l68.47-48.03c.88-.62,2.08-.4,2.7.47s.4,2.08-.47,2.7L12.97,162.94c-.34.24-.72.35-1.11.35Z" fill="url(#eTftIQUCAZH32-fill)"/><path d="M119.62,136.04c-.61,0-1.21-.29-1.59-.83-.61-.88-.4-2.08.48-2.7l40.8-28.63c.87-.61,2.08-.4,2.7.47.61.88.4,2.08-.47,2.7l-40.8,28.62c-.34.24-.72.35-1.11.35Z" fill="url(#eTftIQUCAZH33-fill)"/><path d="M51.43,121.73c-.61,0-1.21-.29-1.59-.82-.61-.87-.4-2.08.47-2.7l40.8-28.62c.88-.61,2.08-.4,2.7.47.61.87.4,2.08-.48,2.7l-40.8,28.62c-.34.23-.73.35-1.11.35Z" fill="url(#eTftIQUCAZH34-fill)"/><path d="M18.18,205.84c-.61,0-1.21-.29-1.59-.83-.61-.88-.4-2.08.47-2.7l79.84-56c.87-.62,2.08-.4,2.7.47.61.88.4,2.09-.47,2.7l-79.84,56c-.34.24-.73.35-1.11.35Z" fill="url(#eTftIQUCAZH35-fill)"/><path d="M70.84,187.01c-.61,0-1.21-.29-1.59-.82-.61-.88-.4-2.08.47-2.7l106.01-74.36c.87-.61,2.08-.4,2.7.47.61.88.4,2.09-.47,2.7L71.95,186.66c-.34.24-.72.35-1.11.35Z" fill="url(#eTftIQUCAZH36-fill)"/></g></g><g><g><g><path d="M135.83,226.29c0-27.55,22.33-76.79,51.37-97.17c15.27-10.71,28.52-11.67,37.67-5.5L191.53,99.99c-.34-.26-.71-.51-1.06-.75v0c-9.14-6.05-22.33-5.05-37.51,5.6-29.03,20.37-51.37,69.61-51.37,97.17c0,14.11,5.42,26.08,14.46,31.97l32.91,23.33c.07.06.14.1.21.15-8.38-6.12-13.35-17.66-13.35-31.18Z" fill="url(#eTftIQUCAZH40-fill)"/><path d="M238.02,155.82c0,34.58-22.52,77.59-51.55,97.95-29.03,20.37-50.64.72-50.64-27.48s22.33-76.79,51.37-97.17c29.03-20.36,50.83-5.51,50.83,26.69Z" fill="url(#eTftIQUCAZH41-fill)"/><path d="M228.58,162.39c0,28.13-18.31,63.11-41.92,79.67-23.62,16.57-41.2.59-41.2-22.35s18.17-62.47,41.78-79.03c23.61-16.57,41.34-4.48,41.34,21.71Z" fill="#fff"/></g><g id="eTftIQUCAZH43" style="mix-blend-mode:multiply"><path d="M205.41,120.57L170.9,96.37c-1.72.39-3.5.94-5.32,1.64l34.47,24.18c1.84-.69,3.62-1.23,5.36-1.61Z" fill="#594e83"/><path d="M147.63,108.97l34.41,24.14c1.2-1,2.42-1.91,3.65-2.81l-34.41-24.14c-1.22.91-2.45,1.81-3.65,2.82Z" fill="#594e83"/><path d="M134.11,123.04l34.37,24.11c.93-1.14,1.86-2.29,2.82-3.39l-34.38-24.11c-.95,1.1-1.88,2.24-2.81,3.39Z" fill="#594e83"/><path d="M123.04,138.83l34.34,24.09c.77-1.26,1.56-2.48,2.37-3.72l-34.36-24.09c-.79,1.23-1.59,2.46-2.35,3.72Z" fill="#594e83"/><path d="M113.9,155.98l34.32,24.08c.63-1.34,1.26-2.69,1.92-4.03l-34.32-24.08c-.66,1.34-1.29,2.68-1.92,4.03Z" fill="#594e83"/><path d="M106.68,174.47l34.3,24.06c.46-1.44.94-2.89,1.46-4.35l-34.31-24.07c-.52,1.47-.99,2.91-1.45,4.36Z" fill="#594e83"/><path d="M102.09,194.81l34.26,24.03c.18-1.59.41-3.2.71-4.88l-34.28-24.05c-.29,1.68-.51,3.29-.69,4.89Z" fill="#594e83"/><path d="M105.24,220.58l34.05,23.89c-.91-2.15-1.61-4.47-2.17-6.89l-34.17-23.96c.59,2.45,1.33,4.8,2.28,6.97Z" fill="#594e83"/></g></g><path style="mix-blend-mode:multiply" d="M210.82,180.97c4.66-4.29,6.62-11.25,4.68-17.28-1.56-4.85-5.2-8.7-9.74-10.31-1.76-.62-3.55-.85-5.25-.7v-5.54l-6.4,4.35v3.86l-3.05,2.07v-3.85l-7.33,4.98v3.82l-21.4,14.45-.03,12.56c0,0,2.41-1.64,5.99-4.06v36.67l-5.99,4.08v12.79l5.99-4.09v.06l5.82-4.04l9.62-6.58v4.81l7.33-5.09v-4.73l3.05-2.09v4.7l6.4-4.44v-4.63l8.73-5.96.06-.05c5.74-4.08,8.34-11.87,6.2-18.51-.92-2.85-2.56-5.36-4.68-7.27ZM198.06,165.4c3.79-2.25,6.94-.05,7.45,1.51.75,2.31-.25,5.26-2.27,6.71l-16.91,11.55-6.5,4.39v-12.05c8.18-5.52,16.5-11.09,18.22-12.11Zm5.18,32.77l-23.4,15.95v-11.79l9.2-6.28c4.28-2.88,7.83-5.27,8.95-6.06c3.43-2.41,7.03-.09,7.53,1.47.75,2.31-.25,5.25-2.27,6.71Z" fill="#9189bd"/></g><g><g><path d="M201.92,110.1L181.97,96.4l-21.81,11.18l29.06,19.88c4.49,3.36,11.37,1.35,14.74-3.14c3.36-4.49,2.45-10.85-2.04-14.21Z" fill="#09003c"/><path d="M209.87,191.86c-1.27.7-4.3.92-6.68-.74-3.52-2.47-10.86-7.05-10.86-7.74v-8.32h11.62c0,0,.02,4.13.02,4.42c0,.45.06,2.13.97,2.98c1.3,1.22,1.99,2,4.09,4.04c2.21,2.14,2.41,4.49.85,5.36Z" fill="#09003c"/><path d="M203.96,179.13l2.72-59.2c0-4.51-3.65-8.16-8.16-8.16s-8.17,3.66-8.17,8.16l-.86,7.61l2.83,54.18l11.63-2.6Z" fill="#09003c"/></g><g><path d="M188.22,120.02l-19.95-13.7-20.96-.8c0,0-.66,4.43-1.14,7.44-.52,3.25,1.62,5.48,5.88,8.43c4.88,3.38,23.47,15.99,23.47,15.99c4.49,3.36,11.38,1.35,14.74-3.14s2.45-10.85-2.04-14.22Z" fill="#09003c"/><path d="M196.17,201.77c-1.27.7-4.3.93-6.68-.74-3.52-2.47-10.86-7.05-10.86-7.74v-8.32h11.62c0,0,.01,4.13.01,4.42c0,.45.06,2.13.97,2.98c1.3,1.22,1.99,2,4.09,4.04c2.21,2.14,2.41,4.49.85,5.36Z" fill="#09003c"/><path d="M190.26,189.05l2.72-59.2c0-4.51-3.65-8.16-8.16-8.16s-8.17,3.66-8.17,8.16l-.86,7.61l2.83,54.18l11.63-2.6Z" fill="#09003c"/></g><g><g><polygon points="153.64,31.2 171.66,30.81 168.48,60.31 153.64,31.2" fill="#928cbe"/><g><path d="M171.66,30.81l-3.18,29.5v41.54c0,0,0,5.76,4.52,4.41c5.34-1.6,8.11-6.7,8.19-8.94.54-14.44.54-14.19.54-39.39l-.02-19.98-10.05-7.13Z" fill="#25216f"/><path d="M168.48,60.31L153.65,31.2c-6.11,4.3-13.93,9.45-13.93,9.45l5.8,25.56l3.1,20.71c0,0-1.8,16.34-2.64,25.58-.43,4.71,13.23,4.62,19.19-.58c2.64-2.3,3.32-6.85,3.32-10.76v-40.86Z" fill="#25216f"/></g><g><path d="M168.44,10.55c-1.32-.68-3.56-1.06-5.19-1.06-5.05,0-8.55,4.69-8.55,9.73v6.7c0,3.22,7.03,8.56,11.35,9.43.86.17,1.38.03,1.67-.12.61-.33,1.14-1.21,1.25-1.42.45-.9.64-2.74.64-2.74l-1.16-20.52Z" fill="#e39e76"/><path d="M163.17,0c-6.2,0-10.49,5.75-10.49,11.95v4.37c0,6.93,10.04,16.08,16.24,16.08c3.1,0,3.68-3.73,4.94-7.56.91-2.78.53-10.77.53-14.18c0-6.2-5.02-10.66-11.22-10.66Z" fill="#f5bb95"/><path d="M154.87,18.68c.86,1.72.75,3.52-.24,4.02s-2.49-.5-3.35-2.22-.75-3.52.24-4.01c.99-.5,2.49.5,3.36,2.22Z" fill="#f5bb95"/></g><path d="M154.7,25.92c0,0,.35,2.47,3.11,4.64s7.58,5.71,9.9,4.68l-5.03,4.21c0,0-9.05-5.97-9.05-8.75s-.09-3.8,1.06-4.78Z" fill="#b2afd4"/><path d="M169.4,32.37c0,0-.26,1.9-1.68,2.87l3.23,2.27.71-6.7c0,0-.88,1.28-2.26,1.56Z" fill="#b2afd4"/></g><path d="M159.99,9.49L154.25,5.7c-1,1.86-1.56,4.03-1.56,6.26v4.37c0,0,0,.09,0,.13c2.01.74,2.67,3.62,2.67,3.62l1.61-1.13.02-2.74c2.25-.29,4.15-4.26,4.86-5.95-1.16-.42-1.86-.76-1.86-.76Z" fill="#09003c"/><path d="M174.47,11.31v0c0-.23,0-.45,0-.65c0-6.2-5.03-10.66-11.22-10.66-4.03,0-7.36,1.96-9.01,5.69l5.75,3.79c0,0,7.72,3.78,14.49,1.82Z" fill="#09003c"/><g><polygon points="168.84,38.99 168.84,36.02 167.72,35.23 164.04,38.31 166.46,40.65 168.84,38.99" fill="#191454"/><polygon points="166.46,40.65 164.96,53.43 168.48,60.31 169.6,50.18 168.84,38.99 166.46,40.65" fill="#191454"/></g><polygon style="mix-blend-mode:multiply" points="158.33,59.16 150.16,33.64 152.45,32 168.48,60.31 158.33,59.16" fill="#191454"/><polygon style="mix-blend-mode:multiply" points="168.48,60.31 177.11,46.93 174.38,32.52 171.66,30.81 168.48,60.31" fill="#191454"/><polygon points="168.48,60.31 159.32,58.27 150.16,33.64 153.64,31.2 168.48,60.31" fill="#25216f"/><path d="M168.48,60.31l7.51-13.73-1.6-14.06c0,0-1.23-1.07-2.72-1.71l-3.18,29.5Z" fill="#25216f"/></g><g><path d="M194.06,73.87c-1.78-8.72-2.82-17.38-4.57-24.22-2.56-9.99-5.2-10.21-7.83-11.71v44.48l5.56,1.67c5.63,1.58,8.3-3.05,6.84-10.22Z" fill="#1a1556"/><polygon points="186.87,83.94 161.01,76.6 163.01,70.04 189.35,75.28 186.87,83.94" fill="#1a1556"/><path d="M173.82,79.72c0,0,5.44-6.23,6.62-4.72c0,0-.27-2.15-1.35-3.57-1.35-1.77-3.31-1.76-5.35-.35s-3.35,2.31-3.35,2.31l3.44,6.33Z" fill="#f5bb95"/><path d="M174.47,81.44c0,0-11.33,5.34-19.81,9.09-2.34,1.03-4.91-.49-6.2-2.68-2.47-4.21-8.59-14.69-11.27-24.56-2.78-10.22-2.03-19.79,1.24-22.21c7.65-5.66,10.75,4.31,13.03,12.59c1.67,6.05,2.82,20.13,4.04,23.32.45,1.18,1.06,1.5,2.07,1.13c6.18-2.33,13.38-6.37,13.38-6.37s4.4,4.33,3.52,9.68Z" fill="#25216f"/><path d="M162.81,70.68c-.65-.18-6.24-1.73-12.1-1.63-.54,0-.97.45-.96,1c0,.54.43.96.99.97.55,0,2.87.41,3.4.43-.26.1-.52.19-.79.31-.49.23-.71.81-.49,1.3.23.5.81.71,1.3.49.09-.04.19-.07.28-.11-.17.11-.34.21-.51.34-.43.33-.51.95-.18,1.38.19.25.48.39.78.39.21,0,.42-.07.6-.2.14-.11.29-.2.44-.29-.16.16-.32.31-.47.48-.35.42-.3,1.03.11,1.39.19.16.41.24.64.24.28,0,.55-.12.75-.35.37-.44.79-.78,1.24-1.06-.25.2-.5.42-.72.67-.37.4-.34,1.02.06,1.39.19.17.43.26.66.26.27,0,.53-.11.72-.32.68-.74,1.6-1.24,2.57-1.57l1.67-5.5Z" fill="#f5bb95"/></g></g></g></g></g>
<script><![CDATA[]]></script>
</svg>
